<?xml version="1.0" encoding="UTF-8" standalone="no"?>
<svg
   xmlns:dc="http://purl.org/dc/elements/1.1/"
   xmlns:cc="http://creativecommons.org/ns#"
   xmlns:rdf="http://www.w3.org/1999/02/22-rdf-syntax-ns#"
   xmlns:svg="http://www.w3.org/2000/svg"
   xmlns="http://www.w3.org/2000/svg"
   xmlns:sodipodi="http://sodipodi.sourceforge.net/DTD/sodipodi-0.dtd"
   xmlns:inkscape="http://www.inkscape.org/namespaces/inkscape"
   inkscape:version="1.0 (4035a4f, 2020-05-01)"
   height="270.00159"
   width="245.30505"
   sodipodi:docname="perugia-logo@logotyp.us.svg"
   id="svg1888"
   version="1.1"
   viewBox="0 0 245.30505 270.00159"
   stroke-miterlimit="2.613"
   fill-rule="evenodd"
   clip-rule="evenodd">
  <metadata
     id="metadata1894">
    <rdf:RDF>
      <cc:Work
         rdf:about="">
        <dc:format>image/svg+xml</dc:format>
        <dc:type
           rdf:resource="http://purl.org/dc/dcmitype/StillImage" />
        <dc:title></dc:title>
      </cc:Work>
    </rdf:RDF>
  </metadata>
  <defs
     id="defs1892" />
  <sodipodi:namedview
     inkscape:current-layer="svg1888"
     inkscape:window-maximized="1"
     inkscape:window-y="25"
     inkscape:window-x="0"
     inkscape:cy="308.69141"
     inkscape:cx="289.98968"
     inkscape:zoom="0.89185736"
     fit-margin-bottom="0"
     fit-margin-right="0"
     fit-margin-left="0"
     fit-margin-top="0"
     showgrid="false"
     id="namedview1890"
     inkscape:window-height="793"
     inkscape:window-width="1440"
     inkscape:pageshadow="2"
     inkscape:pageopacity="0"
     guidetolerance="10"
     gridtolerance="10"
     objecttolerance="10"
     borderopacity="1"
     bordercolor="#666666"
     pagecolor="#ffffff" />
  <g
     id="g1886"
     transform="matrix(1.01178,0,0,-1.01178,-90.946881,3100.6818)">
    <path
       style="fill:#231f20;fill-opacity:1"
       transform="translate(209.843,3064.01)"
       id="path1530"
       fill-rule="nonzero"
       fill="#1d1d1b"
       d="m 0,0 -2.956,-1.33 c -93.282,-41.991 -111.983,-49.75 -114.825,-50.639 l -2.174,-0.68 v -2.275 c 0,-57.003 9.389,-98.846 29.537,-131.679 18.119,-29.518 45.079,-53.114 90.153,-78.897 l 1.38,-0.787 h 0.314 l 1.379,0.787 c 45.071,25.783 72.03,49.379 90.149,78.897 20.153,32.833 29.537,74.676 29.537,131.679 v 2.275 l -2.169,0.68 C 117.479,-51.08 98.778,-43.321 5.492,-1.33 L 1.27,0.571 Z" />
    <path
       style="fill:#ee212e;fill-opacity:1"
       id="path1532"
       transform="translate(209.428,3057.04)"
       fill-rule="nonzero"
       fill="#e20613"
       d="M 0,0 C 0,0 0.862,0.386 1.686,0.76 2.51,0.389 3.368,0 3.368,0 c 65.075,-29.291 103.116,-46.106 113.329,-50.098 -0.235,-54.697 -9.324,-94.888 -28.6,-126.289 -17.329,-28.237 -43.245,-50.986 -86.411,-75.866 -43.166,24.88 -69.083,47.629 -86.412,75.866 -19.271,31.401 -28.365,71.592 -28.599,126.289 C -103.113,-46.106 -65.076,-29.291 0,0" />
    <path
       transform="translate(209.428,3057.04)"
       id="path1534"
       stroke-width="0.52"
       stroke="#1d1d1b"
       fill="none"
       d="M 0,0 C 0,0 0.862,0.386 1.686,0.76 2.51,0.389 3.368,0 3.368,0 c 65.075,-29.291 103.116,-46.106 113.329,-50.098 -0.235,-54.697 -9.324,-94.888 -28.6,-126.289 -17.329,-28.237 -43.245,-50.986 -86.411,-75.866 -43.166,24.88 -69.083,47.629 -86.412,75.866 -19.271,31.401 -28.365,71.592 -28.599,126.289 C -103.113,-46.106 -65.076,-29.291 0,0 Z" />
    <path
       id="path1536"
       transform="translate(139.894,3000.35)"
       fill-rule="nonzero"
       fill="#1d1d1b"
       d="m 0,0 c 1.266,1.168 3.148,2.646 5.964,4.475 2.846,1.848 5.261,2.642 7.351,2.408 1.951,-0.155 3.901,-1.301 5.197,-3.3 1.319,-2.03 1.784,-4.139 1.3,-6.043 -0.631,-2.48 -2.543,-4.71 -5.265,-6.479 -0.608,-0.393 -1.171,-0.718 -1.655,-0.903 l 4.758,-7.325 -4.573,-2.974 z m 10.59,-6.297 c 0.454,0.163 0.956,0.45 1.622,0.881 2.456,1.595 3.163,3.821 1.825,5.877 C 12.82,2.34 10.821,2.634 8.489,1.119 7.548,0.51 6.951,0.038 6.678,-0.272 Z" />
    <path
       id="path1538"
       transform="translate(139.894,3000.35)"
       stroke-width="2.06"
       stroke="#1d1d1b"
       fill="none"
       d="m 0,0 c 1.266,1.168 3.148,2.646 5.964,4.475 2.846,1.848 5.261,2.642 7.351,2.408 1.951,-0.155 3.901,-1.301 5.197,-3.3 1.319,-2.03 1.784,-4.139 1.3,-6.043 -0.631,-2.48 -2.543,-4.71 -5.265,-6.479 -0.608,-0.393 -1.171,-0.718 -1.655,-0.903 l 4.758,-7.325 -4.573,-2.974 z m 10.59,-6.297 c 0.454,0.163 0.956,0.45 1.622,0.881 2.456,1.595 3.163,3.821 1.825,5.877 C 12.82,2.34 10.821,2.634 8.489,1.119 7.548,0.51 6.951,0.038 6.678,-0.272 Z" />
    <path
       id="path1540"
       transform="translate(177.941,3004.99)"
       fill-rule="nonzero"
       fill="#1d1d1b"
       d="m 0,0 -8.281,-3.409 2.204,-5.344 9.244,3.809 1.72,-4.172 -14.324,-5.9 -9.268,22.503 13.856,5.707 1.72,-4.172 -8.78,-3.617 1.923,-4.676 8.281,3.41 z" />
    <path
       id="path1542"
       transform="translate(177.941,3004.99)"
       stroke-width="2.06"
       stroke="#1d1d1b"
       fill="none"
       d="m 0,0 -8.281,-3.409 2.204,-5.344 9.244,3.809 1.72,-4.172 -14.324,-5.9 -9.268,22.503 13.856,5.707 1.72,-4.172 -8.78,-3.617 1.923,-4.676 8.281,3.41 z" />
    <path
       id="path1544"
       transform="translate(179.04,3019.68)"
       fill-rule="nonzero"
       fill="#1d1d1b"
       d="m 0,0 c 1.667,0.673 4.169,1.41 7.072,2.007 3.537,0.726 6.122,0.703 8.103,-0.329 1.682,-0.831 2.8,-2.336 3.25,-4.528 0.62,-3.004 -1.107,-5.537 -3.008,-6.701 l 0.022,-0.106 c 1.799,-0.332 3.039,-1.697 4.09,-3.768 1.304,-2.57 2.649,-5.537 3.299,-6.361 L 17.31,-20.92 c -0.491,0.597 -1.493,2.419 -2.766,5.216 -1.293,2.869 -2.476,3.436 -4.71,3.016 l -1.595,-0.329 1.924,-9.373 -5.34,-1.096 z m 7.438,-9.128 2.124,0.439 c 2.687,0.552 4.003,2.222 3.576,4.309 -0.443,2.161 -2.162,2.985 -4.638,2.479 -1.311,-0.272 -2.037,-0.495 -2.404,-0.68 z" />
    <path
       id="path1546"
       transform="translate(179.04,3019.68)"
       stroke-width="2.06"
       stroke="#1d1d1b"
       fill="none"
       d="m 0,0 c 1.667,0.673 4.169,1.41 7.072,2.007 3.537,0.726 6.122,0.703 8.103,-0.329 1.682,-0.831 2.8,-2.336 3.25,-4.528 0.62,-3.004 -1.107,-5.537 -3.008,-6.701 l 0.022,-0.106 c 1.799,-0.332 3.039,-1.697 4.09,-3.768 1.304,-2.57 2.649,-5.537 3.299,-6.361 L 17.31,-20.92 c -0.491,0.597 -1.493,2.419 -2.766,5.216 -1.293,2.869 -2.476,3.436 -4.71,3.016 l -1.595,-0.329 1.924,-9.373 -5.34,-1.096 z m 7.438,-9.128 2.124,0.439 c 2.687,0.552 4.003,2.222 3.576,4.309 -0.443,2.161 -2.162,2.985 -4.638,2.479 -1.311,-0.272 -2.037,-0.495 -2.404,-0.68 z" />
    <path
       id="path1548"
       transform="translate(207.983,3024.2)"
       fill-rule="nonzero"
       fill="#1d1d1b"
       d="m 0,0 -0.227,-13.973 c -0.068,-4.222 1.523,-6.38 4.305,-6.425 2.888,-0.049 4.505,1.95 4.577,6.281 l 0.227,13.973 5.488,-0.09 -0.219,-13.648 c -0.125,-7.51 -3.973,-11.021 -10.326,-10.919 -6.138,0.102 -9.657,3.587 -9.532,11.316 l 0.219,13.572 z" />
    <path
       id="path1550"
       transform="translate(207.983,3024.2)"
       stroke-width="2.06"
       stroke="#1d1d1b"
       fill="none"
       d="m 0,0 -0.227,-13.973 c -0.068,-4.222 1.523,-6.38 4.305,-6.425 2.888,-0.049 4.505,1.95 4.577,6.281 l 0.227,13.973 5.488,-0.09 -0.219,-13.648 c -0.125,-7.51 -3.973,-11.021 -10.326,-10.919 -6.138,0.102 -9.657,3.587 -9.532,11.316 l 0.219,13.572 z" />
    <path
       id="path1552"
       transform="translate(244.099,2995.68)"
       fill-rule="nonzero"
       fill="#1d1d1b"
       d="m 0,0 c -1.788,-0.155 -5.099,-0.159 -8.217,0.609 -4.312,1.058 -7.166,2.914 -8.832,5.518 -1.629,2.596 -2.064,5.975 -1.21,9.445 1.965,7.846 8.784,10.926 16.532,9.021 C 1.327,23.845 3.53,22.67 4.558,21.861 L 2.374,17.824 c -1.149,0.915 -2.627,1.724 -5.22,2.362 -4.456,1.093 -8.477,-0.593 -9.736,-5.714 -1.206,-4.91 1.183,-8.508 5.563,-9.585 1.195,-0.295 2.211,-0.397 2.673,-0.321 l 1.224,4.977 -3.647,0.896 1.028,4.173 8.802,-2.162 z" />
    <path
       id="path1554"
       transform="translate(244.099,2995.68)"
       stroke-width="2.06"
       stroke="#1d1d1b"
       fill="none"
       d="m 0,0 c -1.788,-0.155 -5.099,-0.159 -8.217,0.609 -4.312,1.058 -7.166,2.914 -8.832,5.518 -1.629,2.596 -2.064,5.975 -1.21,9.445 1.965,7.846 8.784,10.926 16.532,9.021 C 1.327,23.845 3.53,22.67 4.558,21.861 L 2.374,17.824 c -1.149,0.915 -2.627,1.724 -5.22,2.362 -4.456,1.093 -8.477,-0.593 -9.736,-5.714 -1.206,-4.91 1.183,-8.508 5.563,-9.585 1.195,-0.295 2.211,-0.397 2.673,-0.321 l 1.224,4.977 -3.647,0.896 1.028,4.173 8.802,-2.162 z" />
    <path
       id="path1556"
       transform="translate(259.697,3013.8)"
       fill-rule="nonzero"
       fill="#1d1d1b"
       d="m 0,0 -9.441,-22.431 -5.057,2.127 9.441,22.432 z" />
    <path
       id="path1558"
       transform="translate(259.697,3013.8)"
       stroke-width="2.06"
       stroke="#1d1d1b"
       fill="none"
       d="m 0,0 -9.441,-22.431 -5.057,2.127 9.441,22.432 z" />
    <path
       id="path1560"
       transform="translate(260.409,2993.25)"
       fill-rule="nonzero"
       fill="#1d1d1b"
       d="M 0,0 -4.713,-4.437 -9.577,-1.451 9.49,15.402 15.613,11.645 9.354,-13.066 4.305,-9.97 5.972,-3.662 Z m 7.415,0.28 1.406,5.197 c 0.42,1.44 1.013,3.235 1.44,4.622 l -0.094,0.06 C 9.135,9.094 7.835,7.733 6.792,6.72 L 2.831,3.095 Z" />
    <path
       id="path1562"
       transform="translate(260.409,2993.25)"
       stroke-width="2.06"
       stroke="#1d1d1b"
       fill="none"
       d="M 0,0 -4.713,-4.437 -9.577,-1.451 9.49,15.402 15.613,11.645 9.354,-13.066 4.305,-9.97 5.972,-3.662 Z m 7.415,0.28 1.406,5.197 c 0.42,1.44 1.013,3.235 1.44,4.622 l -0.094,0.06 C 9.135,9.094 7.835,7.733 6.792,6.72 L 2.831,3.095 Z" />
    <path
       id="path1564"
       transform="translate(139.894,3000.35)"
       fill-rule="nonzero"
       fill="#ffffff"
       d="m 0,0 c 1.266,1.168 3.148,2.646 5.964,4.475 2.846,1.848 5.261,2.642 7.351,2.408 1.951,-0.155 3.901,-1.301 5.197,-3.3 1.319,-2.03 1.784,-4.139 1.3,-6.043 -0.631,-2.48 -2.543,-4.71 -5.265,-6.479 -0.608,-0.393 -1.171,-0.718 -1.655,-0.903 l 4.758,-7.325 -4.573,-2.974 z m 10.59,-6.297 c 0.454,0.163 0.956,0.45 1.622,0.881 2.456,1.595 3.163,3.821 1.825,5.877 C 12.82,2.34 10.821,2.634 8.489,1.119 7.548,0.51 6.951,0.038 6.678,-0.272 Z" />
    <path
       id="path1566"
       transform="translate(177.941,3004.99)"
       fill-rule="nonzero"
       fill="#ffffff"
       d="m 0,0 -8.281,-3.409 2.204,-5.344 9.244,3.809 1.72,-4.172 -14.324,-5.9 -9.268,22.503 13.856,5.707 1.72,-4.172 -8.78,-3.617 1.923,-4.676 8.281,3.41 z" />
    <path
       id="path1568"
       transform="translate(179.04,3019.68)"
       fill-rule="nonzero"
       fill="#ffffff"
       d="m 0,0 c 1.667,0.673 4.169,1.41 7.072,2.007 3.537,0.726 6.122,0.703 8.103,-0.329 1.682,-0.831 2.8,-2.336 3.25,-4.528 0.62,-3.004 -1.107,-5.537 -3.008,-6.701 l 0.022,-0.106 c 1.799,-0.332 3.039,-1.697 4.09,-3.768 1.304,-2.57 2.649,-5.537 3.299,-6.361 L 17.31,-20.92 c -0.491,0.597 -1.493,2.419 -2.766,5.216 -1.293,2.869 -2.476,3.436 -4.71,3.016 l -1.595,-0.329 1.924,-9.373 -5.34,-1.096 z m 7.438,-9.128 2.124,0.439 c 2.687,0.552 4.003,2.222 3.576,4.309 -0.443,2.161 -2.162,2.985 -4.638,2.479 -1.311,-0.272 -2.037,-0.495 -2.404,-0.68 z" />
    <path
       id="path1570"
       transform="translate(207.983,3024.2)"
       fill-rule="nonzero"
       fill="#ffffff"
       d="m 0,0 -0.227,-13.973 c -0.068,-4.222 1.523,-6.38 4.305,-6.425 2.888,-0.049 4.505,1.95 4.577,6.281 l 0.227,13.973 5.488,-0.09 -0.219,-13.648 c -0.125,-7.51 -3.973,-11.021 -10.326,-10.919 -6.138,0.102 -9.657,3.587 -9.532,11.316 l 0.219,13.572 z" />
    <path
       id="path1572"
       transform="translate(244.099,2995.68)"
       fill-rule="nonzero"
       fill="#ffffff"
       d="m 0,0 c -1.788,-0.155 -5.099,-0.159 -8.217,0.609 -4.312,1.058 -7.166,2.914 -8.832,5.518 -1.629,2.596 -2.064,5.975 -1.21,9.445 1.965,7.846 8.784,10.926 16.532,9.021 C 1.327,23.845 3.53,22.67 4.558,21.861 L 2.374,17.824 c -1.149,0.915 -2.627,1.724 -5.22,2.362 -4.456,1.093 -8.477,-0.593 -9.736,-5.714 -1.206,-4.91 1.183,-8.508 5.563,-9.585 1.195,-0.295 2.211,-0.397 2.673,-0.321 l 1.224,4.977 -3.647,0.896 1.028,4.173 8.802,-2.162 z" />
    <path
       id="path1574"
       transform="translate(259.697,3013.8)"
       fill-rule="nonzero"
       fill="#ffffff"
       d="m 0,0 -9.441,-22.431 -5.057,2.127 9.441,22.432 z" />
    <path
       id="path1576"
       transform="translate(260.409,2993.25)"
       fill-rule="nonzero"
       fill="#ffffff"
       d="M 0,0 -4.713,-4.437 -9.577,-1.451 9.49,15.402 15.613,11.645 9.354,-13.066 4.305,-9.97 5.972,-3.662 Z m 7.415,0.28 1.406,5.197 c 0.42,1.44 1.013,3.235 1.44,4.622 l -0.094,0.06 C 9.135,9.094 7.835,7.733 6.792,6.72 L 2.831,3.095 Z" />
    <path
       id="path1578"
       transform="translate(193.241,2844.43)"
       fill-rule="nonzero"
       fill="#1d1d1b"
       d="M 0,0 H -3.19 V 12.064 C -4.358,10.972 -5.734,10.163 -7.317,9.638 v 2.902 c 0.831,0.276 1.738,0.794 2.717,1.554 0.975,0.767 1.648,1.655 2.007,2.672 H 0 Z" />
    <path
       id="path1580"
       transform="translate(193.241,2844.43)"
       stroke-width="1.03"
       stroke="#1d1d1b"
       fill="none"
       d="M 0,0 H -3.19 V 12.064 C -4.358,10.972 -5.734,10.163 -7.317,9.638 v 2.902 c 0.831,0.276 1.738,0.794 2.717,1.554 0.975,0.767 1.648,1.655 2.007,2.672 H 0 Z" />
    <path
       id="path1582"
       transform="translate(214.112,2861.19)"
       fill-rule="nonzero"
       fill="#1d1d1b"
       d="m 0,0 c 1.625,0 2.899,-0.578 3.814,-1.735 1.088,-1.372 1.636,-3.643 1.636,-6.814 0,-3.168 -0.552,-5.443 -1.648,-6.826 -0.907,-1.142 -2.177,-1.712 -3.802,-1.712 -1.633,0 -2.948,0.623 -3.946,1.878 -1.001,1.251 -1.5,3.481 -1.5,6.694 0,3.148 0.548,5.416 1.648,6.799 C -2.891,-0.571 -1.625,0 0,0 m 0,-2.646 c -0.386,0 -0.726,-0.121 -1.028,-0.37 -0.306,-0.25 -0.54,-0.692 -0.703,-1.334 -0.223,-0.832 -0.329,-2.23 -0.329,-4.199 0,-1.969 0.095,-3.322 0.291,-4.06 0.197,-0.737 0.446,-1.224 0.745,-1.47 0.298,-0.245 0.638,-0.366 1.024,-0.366 0.386,0 0.729,0.124 1.032,0.374 0.306,0.245 0.537,0.691 0.703,1.33 0.219,0.828 0.329,2.223 0.329,4.192 0,1.969 -0.099,3.318 -0.295,4.059 -0.197,0.733 -0.442,1.224 -0.745,1.474 -0.295,0.249 -0.638,0.37 -1.024,0.37" />
    <path
       id="path1584"
       transform="translate(214.112,2861.19)"
       stroke-width="1.03"
       stroke="#1d1d1b"
       fill="none"
       d="m 0,0 c 1.625,0 2.899,-0.578 3.814,-1.735 1.088,-1.372 1.636,-3.643 1.636,-6.814 0,-3.168 -0.552,-5.443 -1.648,-6.826 -0.907,-1.142 -2.177,-1.712 -3.802,-1.712 -1.633,0 -2.948,0.623 -3.946,1.878 -1.001,1.251 -1.5,3.481 -1.5,6.694 0,3.148 0.548,5.416 1.648,6.799 C -2.891,-0.571 -1.625,0 0,0 Z m 0,-2.646 c -0.386,0 -0.726,-0.121 -1.028,-0.37 -0.306,-0.25 -0.54,-0.692 -0.703,-1.334 -0.223,-0.832 -0.329,-2.23 -0.329,-4.199 0,-1.969 0.095,-3.322 0.291,-4.06 0.197,-0.737 0.446,-1.224 0.745,-1.47 0.298,-0.245 0.638,-0.366 1.024,-0.366 0.386,0 0.729,0.124 1.032,0.374 0.306,0.245 0.537,0.691 0.703,1.33 0.219,0.828 0.329,2.223 0.329,4.192 0,1.969 -0.099,3.318 -0.295,4.059 -0.197,0.733 -0.442,1.224 -0.745,1.474 -0.295,0.249 -0.638,0.37 -1.024,0.37 z" />
    <path
       id="path1586"
       transform="translate(220.584,2848.71)"
       fill-rule="nonzero"
       fill="#1d1d1b"
       d="M 0,0 3.19,0.329 C 3.281,-0.393 3.553,-0.968 4.003,-1.387 4.452,-1.81 4.97,-2.022 5.56,-2.022 c 0.669,0 1.239,0.276 1.704,0.824 C 7.729,-0.65 7.96,0.178 7.96,1.281 7.96,2.321 7.733,3.095 7.268,3.617 6.807,4.135 6.21,4.392 5.469,4.392 4.547,4.392 3.719,3.984 2.99,3.167 L 0.386,3.545 2.03,12.227 h 8.477 V 9.23 H 4.46 L 3.957,6.406 c 0.715,0.356 1.448,0.533 2.192,0.533 1.421,0 2.631,-0.518 3.617,-1.561 0.991,-1.039 1.486,-2.388 1.486,-4.048 0,-1.383 -0.401,-2.619 -1.198,-3.707 C 8.965,-3.859 7.453,-4.6 5.522,-4.6 3.976,-4.6 2.717,-4.188 1.746,-3.356 0.771,-2.525 0.189,-1.406 0,0" />
    <path
       id="path1588"
       transform="translate(220.584,2848.71)"
       stroke-width="1.03"
       stroke="#1d1d1b"
       fill="none"
       d="M 0,0 3.19,0.329 C 3.281,-0.393 3.553,-0.968 4.003,-1.387 4.452,-1.81 4.97,-2.022 5.56,-2.022 c 0.669,0 1.239,0.276 1.704,0.824 C 7.729,-0.65 7.96,0.178 7.96,1.281 7.96,2.321 7.733,3.095 7.268,3.617 6.807,4.135 6.21,4.392 5.469,4.392 4.547,4.392 3.719,3.984 2.99,3.167 L 0.386,3.545 2.03,12.227 h 8.477 V 9.23 H 4.46 L 3.957,6.406 c 0.715,0.356 1.448,0.533 2.192,0.533 1.421,0 2.631,-0.518 3.617,-1.561 0.991,-1.039 1.486,-2.388 1.486,-4.048 0,-1.383 -0.401,-2.619 -1.198,-3.707 C 8.965,-3.859 7.453,-4.6 5.522,-4.6 3.976,-4.6 2.717,-4.188 1.746,-3.356 0.771,-2.525 0.189,-1.406 0,0 Z" />
    <path
       id="path1590"
       transform="translate(193.241,2844.43)"
       fill-rule="nonzero"
       fill="#ffffff"
       d="M 0,0 H -3.19 V 12.064 C -4.358,10.972 -5.734,10.163 -7.317,9.638 v 2.902 c 0.831,0.276 1.738,0.794 2.717,1.554 0.975,0.767 1.648,1.655 2.007,2.672 H 0 Z" />
    <path
       id="path1592"
       transform="translate(214.112,2861.19)"
       fill-rule="nonzero"
       fill="#ffffff"
       d="m 0,0 c 1.625,0 2.899,-0.578 3.814,-1.735 1.088,-1.372 1.636,-3.643 1.636,-6.814 0,-3.168 -0.552,-5.443 -1.648,-6.826 -0.907,-1.142 -2.177,-1.712 -3.802,-1.712 -1.633,0 -2.948,0.623 -3.946,1.878 -1.001,1.251 -1.5,3.481 -1.5,6.694 0,3.148 0.548,5.416 1.648,6.799 C -2.891,-0.571 -1.625,0 0,0 m 0,-2.646 c -0.386,0 -0.726,-0.121 -1.028,-0.37 -0.306,-0.25 -0.54,-0.692 -0.703,-1.334 -0.223,-0.832 -0.329,-2.23 -0.329,-4.199 0,-1.969 0.095,-3.322 0.291,-4.06 0.197,-0.737 0.446,-1.224 0.745,-1.47 0.298,-0.245 0.638,-0.366 1.024,-0.366 0.386,0 0.729,0.124 1.032,0.374 0.306,0.245 0.537,0.691 0.703,1.33 0.219,0.828 0.329,2.223 0.329,4.192 0,1.969 -0.099,3.318 -0.295,4.059 -0.197,0.733 -0.442,1.224 -0.745,1.474 -0.295,0.249 -0.638,0.37 -1.024,0.37" />
    <path
       id="path1594"
       transform="translate(220.584,2848.71)"
       fill-rule="nonzero"
       fill="#ffffff"
       d="M 0,0 3.19,0.329 C 3.281,-0.393 3.553,-0.968 4.003,-1.387 4.452,-1.81 4.97,-2.022 5.56,-2.022 c 0.669,0 1.239,0.276 1.704,0.824 C 7.729,-0.65 7.96,0.178 7.96,1.281 7.96,2.321 7.733,3.095 7.268,3.617 6.807,4.135 6.21,4.392 5.469,4.392 4.547,4.392 3.719,3.984 2.99,3.167 L 0.386,3.545 2.03,12.227 h 8.477 V 9.23 H 4.46 L 3.957,6.406 c 0.715,0.356 1.448,0.533 2.192,0.533 1.421,0 2.631,-0.518 3.617,-1.561 0.991,-1.039 1.486,-2.388 1.486,-4.048 0,-1.383 -0.401,-2.619 -1.198,-3.707 C 8.965,-3.859 7.453,-4.6 5.522,-4.6 3.976,-4.6 2.717,-4.188 1.746,-3.356 0.771,-2.525 0.189,-1.406 0,0" />
    <path
       id="path1596"
       transform="translate(166.807,2896.88)"
       fill-rule="nonzero"
       fill="#1d1d1b"
       d="M 0,0 H -3.553 L -4.94,3.677 h -6.459 L -12.726,0 h -3.492 l 6.229,16.188 h 3.534 z m -6.009,6.418 -2.23,5.998 -2.166,-5.998 z" />
    <path
       id="path1598"
       transform="translate(166.807,2896.88)"
       stroke-width="1.03"
       stroke="#1d1d1b"
       fill="none"
       d="M 0,0 H -3.553 L -4.94,3.677 h -6.459 L -12.726,0 h -3.492 l 6.229,16.188 h 3.534 z m -6.009,6.418 -2.23,5.998 -2.166,-5.998 z" />
    <path
       id="path1600"
       stroke-width="1.03"
       stroke="#1d1d1b"
       fill-rule="nonzero"
       fill="#1d1d1b"
       d="m 167.388,2896.88 h 3.095 v 3.095 h -3.095 z" />
    <path
       id="path1602"
       transform="translate(259.422,2902.85)"
       fill-rule="nonzero"
       fill="#1d1d1b"
       d="M 0,0 3.16,-0.968 C 2.676,-2.755 1.863,-4.086 0.733,-4.955 c -1.13,-0.869 -2.566,-1.3 -4.308,-1.3 -2.151,0 -3.92,0.737 -5.307,2.207 -1.387,1.467 -2.079,3.481 -2.079,6.032 0,2.699 0.7,4.793 2.09,6.286 1.395,1.493 3.228,2.241 5.503,2.241 1.985,0 3.599,-0.59 4.834,-1.758 C 2.203,8.062 2.759,7.068 3.129,5.768 L -0.094,4.997 c -0.197,0.835 -0.598,1.496 -1.21,1.98 -0.612,0.488 -1.357,0.726 -2.23,0.726 -1.209,0 -2.192,-0.431 -2.944,-1.289 -0.752,-0.862 -1.13,-2.257 -1.13,-4.188 0,-2.048 0.37,-3.503 1.111,-4.373 0.741,-0.869 1.705,-1.304 2.888,-1.304 0.873,0 1.625,0.276 2.256,0.832 C -0.726,-2.064 -0.272,-1.191 0,0" />
    <path
       id="path1604"
       transform="translate(259.422,2902.85)"
       stroke-width="1.03"
       stroke="#1d1d1b"
       fill="none"
       d="M 0,0 3.16,-0.968 C 2.676,-2.755 1.863,-4.086 0.733,-4.955 c -1.13,-0.869 -2.566,-1.3 -4.308,-1.3 -2.151,0 -3.92,0.737 -5.307,2.207 -1.387,1.467 -2.079,3.481 -2.079,6.032 0,2.699 0.7,4.793 2.09,6.286 1.395,1.493 3.228,2.241 5.503,2.241 1.985,0 3.599,-0.59 4.834,-1.758 C 2.203,8.062 2.759,7.068 3.129,5.768 L -0.094,4.997 c -0.197,0.835 -0.598,1.496 -1.21,1.98 -0.612,0.488 -1.357,0.726 -2.23,0.726 -1.209,0 -2.192,-0.431 -2.944,-1.289 -0.752,-0.862 -1.13,-2.257 -1.13,-4.188 0,-2.048 0.37,-3.503 1.111,-4.373 0.741,-0.869 1.705,-1.304 2.888,-1.304 0.873,0 1.625,0.276 2.256,0.832 C -0.726,-2.064 -0.272,-1.191 0,0 Z" />
    <path
       id="path1606"
       stroke-width="1.03"
       stroke="#1d1d1b"
       fill-rule="nonzero"
       fill="#1d1d1b"
       d="m 264.193,2896.88 h 3.095 v 3.095 h -3.095 z" />
    <path
       id="path1608"
       transform="translate(166.807,2896.88)"
       fill-rule="nonzero"
       fill="#ffffff"
       d="M 0,0 H -3.553 L -4.94,3.677 h -6.459 L -12.726,0 h -3.492 l 6.229,16.188 h 3.534 z m -6.009,6.418 -2.23,5.998 -2.166,-5.998 z" />
    <path
       id="path1610"
       fill-rule="nonzero"
       fill="#ffffff"
       d="m 167.388,2896.88 h 3.095 v 3.095 h -3.095 z" />
    <path
       id="path1612"
       transform="translate(259.422,2902.85)"
       fill-rule="nonzero"
       fill="#ffffff"
       d="M 0,0 3.16,-0.968 C 2.676,-2.755 1.863,-4.086 0.733,-4.955 c -1.13,-0.869 -2.566,-1.3 -4.308,-1.3 -2.151,0 -3.92,0.737 -5.307,2.207 -1.387,1.467 -2.079,3.481 -2.079,6.032 0,2.699 0.7,4.793 2.09,6.286 1.395,1.493 3.228,2.241 5.503,2.241 1.985,0 3.599,-0.59 4.834,-1.758 C 2.203,8.062 2.759,7.068 3.129,5.768 L -0.094,4.997 c -0.197,0.835 -0.598,1.496 -1.21,1.98 -0.612,0.488 -1.357,0.726 -2.23,0.726 -1.209,0 -2.192,-0.431 -2.944,-1.289 -0.752,-0.862 -1.13,-2.257 -1.13,-4.188 0,-2.048 0.37,-3.503 1.111,-4.373 0.741,-0.869 1.705,-1.304 2.888,-1.304 0.873,0 1.625,0.276 2.256,0.832 C -0.726,-2.064 -0.272,-1.191 0,0" />
    <path
       id="path1614"
       fill-rule="nonzero"
       fill="#ffffff"
       d="m 264.193,2896.88 h 3.095 v 3.095 h -3.095 z" />
    <path
       style="fill:#231f20;fill-opacity:1"
       id="path1616"
       transform="translate(249.63,2978.55)"
       fill-rule="nonzero"
       fill="#1d1d1b"
       d="m 0,0 c 0.612,1.013 1.417,6.52 0.268,6.52 -1.746,0 -7.574,-9.748 -12.098,-12.537 0,0.506 0.113,1.791 -0.31,1.368 -0.423,-0.427 -5.488,-3.613 -6.459,-3.613 0.971,1.943 5.091,8.281 2.419,8.867 0.586,1.731 1.568,9.184 -0.023,9.184 -1.587,0 -3.091,-10.246 -6.092,-13.599 -2.873,-3.212 -8.334,-9.415 -8.795,-10.715 -0.541,0.991 -0.934,2.551 -1.516,3.583 0.661,0.662 1.516,3.379 1.516,4.241 0,0.858 -0.125,2.978 0.468,4.433 -2.018,-0.793 -5.144,-3.636 -5.144,-3.636 0,0 0.068,0.624 -0.177,0.87 0.431,0 0.453,0.495 0.453,0.65 v 1.855 c 0,0 1.988,3.508 4.573,5.428 -1.424,0.264 -5.994,-3.046 -5.994,-3.046 0,0 0.794,-2.204 -0.729,-2.204 -1.523,0 -0.397,2.668 -0.397,2.668 l -1.92,4.305 -1.856,-4.305 c 0,0 1.225,-2.668 -0.249,-2.668 -1.474,0 -0.711,2.272 -0.711,2.272 0,0 -5.696,5.265 -7.056,4.966 2.256,-2.846 5.431,-7.416 5.431,-7.416 v -1.262 c 0,0 -1.198,-0.695 -0.813,-1.655 0,0 -1.224,1.016 -2.895,0.729 -6.402,-1.096 -3.262,-7.434 -1.175,-7.268 0,1.024 -0.061,1.55 0.846,1.55 1.433,0 2.88,-3.719 3.708,-4.547 0.828,-0.832 -3.885,0.529 -3.443,-0.994 -1.149,-0.465 -4.932,-1.391 -6.028,-0.597 -0.201,-1.459 1.595,-1.852 2.335,-1.554 0.28,-0.665 2.812,0.545 2.812,0.545 0,0 -0.015,-0.945 0.979,-0.945 0.166,-1.459 1.161,-1.293 1.489,-1.293 0.333,0 1.327,-1.72 1.69,-1.357 0.366,0.367 0.132,2.155 1.292,2.155 1.69,0 0.892,-2.65 -0.264,-3.115 -1.161,-0.461 1.1,0.163 0.778,-0.612 -1.424,-2.816 -2.403,-3.791 -5.813,-0.843 0,-1.527 0.843,-3.231 2.185,-3.976 -2.838,-1.727 -4.819,-0.147 -5.197,1.856 -1.194,0.627 -1.179,1.342 -1.179,1.871 0,0.529 -3.791,-1.21 -3.791,-2.37 0,-1.157 -1.292,2.374 -1.292,3.942 -3.84,-2.869 1.148,-7.087 2.12,-7.529 -0.095,-0.098 -2.672,0.507 -3.621,2.075 0,-2.585 3.557,-3.114 2.033,-3.571 -0.593,-0.223 -1.394,-0.265 -2.486,0.113 -0.991,1.262 -1.709,3.333 -2.416,3.878 0.598,0.166 0.016,1.175 -0.665,1.855 0.401,0.681 -0.166,2.382 -0.858,2.782 0.231,0.597 0.314,2.865 0,3.179 0.049,0.676 0.287,2.32 0.287,2.32 0,0 0.076,0.628 1.202,0.628 1.127,0 1.542,-0.681 2.268,-0.514 0.533,0.121 1.78,0.79 1.977,2.037 2.264,0.673 2.317,2.801 1.376,3.742 -0.813,-1.1 -1.191,-1.414 -1.962,-1.573 -1.644,3.013 -2.033,0.59 -3.791,0.809 -0.363,1.493 2.85,2.684 0.102,4.872 -0.196,0.155 -0.378,0.283 -0.544,0.393 0.015,0.053 0.03,0.106 0.045,0.159 0.654,2.611 -1.493,3.42 -2.29,3.035 1.115,-1.554 0.552,-1.788 0.174,-2.967 -0.133,-0.095 -0.242,-0.185 -0.367,-0.223 -1.829,-0.571 0.363,-3.05 -1.973,-4.161 -1.017,-0.484 -1.009,0.253 -1.406,1.047 -0.397,0.793 0.038,2.245 -0.794,3.08 -0.71,0.71 -1.152,0.873 -1.576,0.797 -0.752,1.652 -2.377,1.626 -3.148,0.783 0.801,-0.662 1.134,-1.036 1.308,-1.565 -1.145,-0.488 -2.098,-1.168 -1.289,-2.366 0.896,-1.323 3.776,-2.581 4.173,-4.8 -0.167,-0.93 -0.96,-1.361 -1.406,-2.173 -0.446,-0.809 -0.019,-1.372 -0.314,-1.671 -0.299,-0.298 -3.644,-1.625 -3.644,-2.884 0,-1.012 0.794,-1.595 1.833,-1.991 -0.245,-0.847 -0.763,-1.433 -1.678,-1.849 1.149,-0.396 2.408,-0.064 3.092,0.62 0.238,0.238 0.393,0.503 0.495,0.771 0.866,-0.038 1.554,0.235 1.954,0.896 0.563,0.926 0.219,3.058 1.425,3.507 0.824,0.314 1.157,-0.128 1.157,-3.012 0,-2.88 1.326,-4.271 0.631,-6.852 -0.102,-0.389 -0.174,-0.707 -0.212,-0.968 -1.115,-0.431 -1.447,-1.092 -1.61,-1.254 0.242,0 0.265,-0.265 0.265,-0.265 0,0 -0.926,-0.575 -0.926,-1.323 2.097,0.748 3.023,0.155 3.379,-0.2 0.351,-0.352 0.396,-1.988 0.396,-1.988 0,0 -2.23,1.326 -3.114,1.062 -0.722,0.087 -1.191,0.858 -2.585,0.858 -1.697,0 -3.882,-2.824 -3.882,-2.824 0,0 2.226,1.633 3.353,1.633 1.126,0 4.482,-4.04 5.896,-4.369 1.413,-0.333 3.182,0 3.182,0 0,0 -0.272,-2.143 -1.119,-2.011 -0.846,0.133 -0.982,0.424 -1.651,0.424 -0.257,0.502 -1.331,0.483 -1.822,0.646 -0.159,0.367 -1.002,0.355 -1.568,0.59 -0.356,0.351 -1.346,0.563 -2.045,0.876 -0.212,0.382 -1.315,0.605 -1.943,0.908 -0.325,0.325 -1.164,0.563 -1.667,0.816 -0.177,0.351 -1.285,0.658 -1.655,0.862 -1.482,0.816 -3.133,1.787 -3.753,5.257 -0.359,2.007 1.553,1.988 1.553,3.084 0,0.998 -0.782,1.652 -1.829,1.754 -0.121,0.2 -0.291,0.45 -0.522,0.771 -1.391,1.95 -2.797,1.27 -3.541,0.525 0.525,0 1.859,-0.911 2.294,-1.772 -0.495,-0.31 -0.824,-0.654 -0.824,-0.654 0,0 -0.627,0 -1.939,-0.707 -1.753,0.937 -2.577,0.85 -3.704,-0.11 1.3,-0.461 1.951,-0.748 2.329,-0.979 -0.605,-0.918 -0.216,-2.025 0.045,-2.222 0.404,-0.31 0.801,-0.563 1.175,-0.786 -1.262,0.416 -2.664,0.574 -3.193,-0.469 -0.11,0.008 -0.227,0.015 -0.356,0.015 -2.252,0 -2.301,-1.92 -2.301,-3.012 0,0 0.748,1.164 2.033,1.164 0.121,0 0.238,0.008 0.348,0.023 0.317,-2.971 4.762,-1.523 5.748,-2.056 0.367,-0.575 -0.208,-0.76 0.299,-1.153 0.503,-0.389 1.372,0.151 1.644,-0.117 0.272,-0.272 0.673,-0.601 0.673,-2.498 0,-1.686 -2.374,-6.278 0.518,-5.243 0.635,-0.419 1.005,-0.706 0.544,-2.109 1.213,0.787 1.859,2.121 1.515,3.255 2.495,2.022 -1.78,2.94 -0.963,4.505 0.884,1.701 4.902,-1.145 4.902,-1.145 0,0 -1.217,-0.242 -1.365,-1.391 -0.151,-1.145 0.458,-1.943 0.987,-2.476 0.533,-0.529 1.058,-1.591 1.701,-1.875 0.642,-0.287 2.46,-0.124 2.683,0.344 0,-0.487 0.737,-1.579 1.293,-1.579 0,-0.552 1.081,-3.689 1.455,-3.844 0.363,0.93 0.873,0.676 1.149,0.4 0.276,-1.149 1.882,-1.296 2.294,-1.368 0.416,-0.075 0.62,-1.194 0.62,-2.256 2.165,0.423 2.01,2.85 1.81,3.314 0.465,-0.2 1.788,0.726 2.143,0.858 0.121,-0.385 0.896,-0.869 0.507,-1.258 0.638,-0.639 0.529,-2.207 0.529,-2.207 0,0 0.774,0.378 1.224,0.476 0.454,-0.276 0.386,-1.312 0.015,-2.151 1.41,0.461 1.244,1.18 1.875,1.83 0.299,-0.299 0.552,-0.439 1.16,-1.047 1.958,-2.117 6.543,-4.679 5.817,-6.444 -1.829,1.523 -4.8,3.125 -6.58,5.087 0.983,-1.625 2.835,-4.547 4.838,-6.293 -0.522,-0.148 -1.089,-0.193 -1.592,-0.023 -1.009,0.337 -2.218,1.111 -2.793,1.418 -0.498,0.396 -1.19,0.789 -2.309,0.789 -2.116,0 -2.816,-2.252 -2.816,-3.178 0,-2.752 -2.063,-1.954 -2.063,-4.948 0,-1.436 1.315,-2.097 1.667,-3.201 0.355,-1.103 -0.363,-3.11 0.895,-5.408 1.285,-2.344 4.184,-5.299 5.397,-6.977 -0.574,0.177 -1.87,-0.382 -3.496,0.136 -2.63,0.824 -2.762,3.345 -4.153,4.059 0.661,1.701 -1.754,3.19 -3.973,2.604 -2.562,1.459 -3.545,-1.3 -3.401,-1.939 1.213,-0.026 0.816,0.11 1.765,-0.045 0.31,-0.08 0.374,-0.541 0.011,-1.334 -0.661,0.196 -1.689,-0.866 -2.173,-1.452 -0.707,0.178 -2.461,-0.714 -1.833,-2.789 0.574,0.442 2.362,0.729 3.315,0.333 -0.707,-0.533 -1.229,-0.994 -0.998,-1.644 -1.886,-0.458 -1.898,-2.828 -0.972,-3.096 0.533,0.306 2.385,0.707 2.385,0.707 0,0 0.839,-1.236 1.901,-1.501 0.635,-0.158 1.807,0.707 1.807,0.707 h 1.459 c 1.236,0 3.315,0.885 3.844,0.62 0.529,-0.265 -1.327,-2.166 -1.327,-2.166 0.529,-0.132 1.504,1.236 1.988,1.236 0.484,0 0.219,-1.323 -0.264,-2.165 0.748,-0.174 0.351,2.74 2.161,2.475 0.31,-0.31 0.223,-1.236 -0.264,-2.075 0.397,0.087 1.459,1.149 2.43,1.281 0.593,0.08 2.34,0.042 3.046,0.042 0.707,0 0.885,0.62 0.885,0.62 0,0 1.852,0.155 2.513,1.149 0.665,0.99 -1.19,4.505 -1.258,5.631 -0.034,0.594 0.332,2.623 0.332,4.037 0,1.13 -0.529,2.517 -0.461,3.182 l -0.007,0.371 c 0.876,-0.987 1.598,-1.558 2.324,-2.491 0.748,-0.971 3.575,-4.195 4.15,-4.861 0.574,-0.661 1.546,-1.322 2.12,-2.736 0.571,-1.413 0.749,-2.695 0.794,-5.828 0.045,-3.133 -0.064,-3.719 -0.064,-4.384 0,-0.665 -0.96,-0.922 -0.862,-1.622 -1.168,0.586 -2.759,0.254 -3.712,-1.016 -2.887,0.423 -3.7,-1.35 -3.31,-2.208 -1.977,-1.251 -1.312,-3.836 -0.575,-4.327 0.59,0.605 1.327,1.682 1.943,1.682 0.31,-0.783 0.657,-1.44 1.013,-1.482 -0.034,-1.924 1.058,-2.577 1.848,-2.77 -0.11,0.472 0.366,1.587 0.892,1.731 0.62,-0.132 1.368,-0.042 1.856,-0.042 0.317,-0.434 0.412,-0.249 0.721,-0.472 -0.219,-0.922 0.775,-2.034 1.849,-1.958 -0.186,0.59 0.344,2.12 0.74,2.12 2.695,-0.015 3.062,2.128 2.827,2.517 2.525,2.786 1.157,5.296 0.042,6.184 0.045,0.261 0.352,0.873 0.488,1.255 2.218,-0.257 3.53,-0.099 3.734,0.4 -2.846,-0.287 -3.549,0.378 -3.349,0.858 1.463,0.144 3.708,0.563 3.511,0.994 -1.088,-0.295 -3.375,-0.589 -3.443,0.068 0.953,0.783 2.502,1.006 2.283,1.69 -0.408,-0.242 -2.283,-0.333 -2.68,-0.068 -0.204,0.529 -0.499,1.855 -0.563,2.086 1.172,3.87 -0.268,4.203 -1.092,4.671 -0.73,0.412 0.639,4.407 0.529,6.161 -0.144,2.275 -1.637,3.111 -1.735,4.267 0.839,0.688 1.395,1.417 1.644,2.744 1.07,-0.778 2.446,-1.481 3.897,-1.481 1.126,0 0.93,0.332 1.55,0.374 2.358,-1.04 2.494,-0.178 2.226,1.477 2.056,0.299 1.425,0.167 1.084,0.598 4.483,3.575 1.301,0.729 -0.487,0.752 1.723,7.548 -4.241,17.839 1.017,18.236 3.711,0.28 -0.178,-8.61 7.283,-10.643 0.631,-1.886 1.636,-3.576 -0.571,-6.577 3.882,0.926 4.811,4.899 4.237,6.18 2.339,0.574 2.649,2.517 4.018,2.517 1.107,0 1.988,-1.017 2.959,-2.075 -0.219,0.839 -0.529,5.167 -3.972,5.167 -1.236,0 -2.079,-0.223 -2.654,-0.484 1.372,0.571 1.815,2.294 1.815,3.485 0,2.997 -3.727,6.875 -0.915,6.875 0.979,0 1.406,-0.397 2.15,-2.37 -0.109,4.808 -3.295,3.749 -4.191,2.351 -0.306,-0.102 0.004,2.166 2.026,1.931 -1.285,1.27 -3.515,-1.33 -4.003,-3.526 -0.038,-0.14 -0.056,-0.291 -0.056,-0.45 0,-2.336 1.19,-3.001 1.19,-3.968 0,-0.976 -0.794,-2.431 -2.207,-2.431 -3.179,0 -2.517,6.448 -7.068,6.448 -3.088,0 -5.03,-2.827 -5.03,-6.361 0,-3.133 2.604,-13.776 -0.575,-13.776 -1.731,0 -2.993,1.55 -3.912,3.299 -0.238,0.979 -0.631,1.992 -1.277,3.833 -1.013,2.872 -2.793,7.842 -3.795,10.409 h -0.004 c -0.018,0.053 -0.041,0.102 -0.06,0.155 -0.083,0.215 -0.227,0.616 -0.287,0.914 0.022,0.083 0.056,0.201 0.094,0.352 3.065,-1.062 3.591,-0.144 4.075,0.907 4.104,-1.013 5.298,-0.529 4.856,1.413 2.608,0.087 3.315,1.501 2.65,2.208 2.959,0.465 3.269,1.273 3.375,1.848 0.571,-0.117 2.645,1.247 2.419,2.347 1.912,-0.14 6.285,1.236 5.816,4.15 0.798,0.2 2.072,1.277 2.072,3.428 2.218,0.499 6.277,3.829 3.692,4.985 2.616,2.616 3.046,3.81 2.143,4.997 3.621,3.016 2.075,4.694 0.926,4.962 2.861,2.26 3.727,4.267 2.574,5.42 2.249,2.593 2.426,4.724 1.633,5.076 C -1.077,-6.24 2.12,-0.631 0,0 m -67.049,-44.821 c -0.544,0.548 0.431,1.855 0.431,1.855 v 0.133 l 2.419,-0.964 c -0.348,-0.348 -2.302,-1.569 -2.85,-1.024" />
    <path
       id="path1618"
       transform="translate(249.811,2983.7)"
       fill-rule="nonzero"
       fill="#ffffff"
       d="m 0,0 c -0.563,0.563 -8.546,-9.736 -12.189,-12.121 -3.64,-2.381 -8.874,-6.293 -10.594,-8.013 -1.723,-1.723 -0.246,-3.31 1.259,-2.316 7.657,5.064 11.765,7.46 16.887,12.582 C 0.484,-4.743 0.386,-0.382 0,0" />
    <path
       id="path1620"
       transform="translate(239.256,2920.69)"
       fill-rule="nonzero"
       fill="#ffffff"
       d="m 0,0 c -0.839,0 -1.304,0.351 -1.304,0.816 0,0.465 -0.287,0.96 -0.287,0.96 0,0 -1.436,-1.954 -4.679,-1.954 -1.988,0 -3.644,1.558 -3.644,2.453 0.333,-0.332 2.189,-1.723 3.311,-1.723 1.126,0 2.12,1.19 2.385,1.19 0.265,0 0.2,-0.529 0.529,-0.529 1.527,0.333 0.73,3.844 1.062,3.976 0.329,-0.17 0.518,-0.654 0.862,-0.994 0.752,1.164 -0.068,2.264 -0.779,3.353 -0.714,1.088 -1.372,3.734 -0.846,4.146 -0.216,0 -0.476,-0.299 -0.529,-0.355 0.041,-0.722 0.774,-4.464 0.623,-4.615 -0.646,1.942 -1.02,4.195 -1.451,3.466 -0.96,-3.546 1.523,-4.105 1.323,-5.666 -0.197,-0.264 -0.329,0.068 -0.461,-0.196 0.196,-0.896 -1.459,-2.65 -2.718,-2.65 -3.938,0 -3.046,6.954 -7.351,6.954 -2.385,0 -4.505,-2.626 -4.505,-6.425 0,-2.317 2.649,-14.241 -1.058,-14.241 -2.801,0 -4.045,2.109 -4.804,3.341 -0.008,0.098 -0.015,0.178 -0.03,0.238 -0.201,0.794 -3.844,1.92 -3.909,2.85 4.8,-0.998 -2.585,3.575 -2.585,4.369 4.275,-1.258 -0.529,2.317 -0.593,2.978 3.243,-0.495 -1.259,2.419 -1.327,3.315 4.388,-1.75 0.201,1.036 0.102,1.875 0.004,-0.004 0.008,-0.004 0.015,-0.012 -0.007,0.008 -0.011,0.015 -0.018,0.023 2.815,0.763 -1.38,2.638 -1.686,3.126 -0.355,-0.178 1.145,-2.034 0.881,-2.121 -3.576,3.799 -2.828,0.881 -1.501,-1.587 -0.265,-0.091 -2.339,2.03 -2.562,2.736 -0.042,-1.194 0.355,-2.562 0.529,-3.711 -0.261,0.223 -0.529,0.132 -0.926,0.132 -0.443,-0.748 -0.133,-1.546 -0.133,-2.162 -0.355,0 -0.616,1.852 -0.706,2.294 -0.087,0.443 -0.707,1.149 -0.707,2.211 0,0.526 0.37,1.422 0.786,2.257 -2.317,-0.979 -5.004,-2.744 -5.004,-3.141 0,-3.511 7.706,-5.597 7.706,-10.288 0,-3.59 -3.753,-1.172 -3.753,-4.637 0,-3.753 4.109,-8.965 5.212,-10.507 1.104,-1.546 3.179,-3.89 3.976,-4.77 0.794,-0.885 3.572,-3.115 3.572,-6.27 0,-0.885 -0.438,-0.386 -0.438,-1.811 0,-0.62 0.211,-3.711 0.309,-4.902 0.08,-0.967 -0.967,-1.44 -0.918,-2.328 0.181,-0.189 2.169,-0.752 2.287,2.94 0.298,-2.282 -0.238,-2.781 -0.972,-3.129 -1.349,-0.96 -1.791,-1.965 -2.052,-2.627 -1.281,0 -2.43,-0.639 -2.143,-1.349 1.081,-0.616 1.742,0 1.81,0.178 0,-0.84 -1.413,-1.346 -2.078,-0.707 -2.007,0.442 -3.466,-1.852 -1.365,-2.43 2.782,1.704 1.569,-1.081 3.092,-0.261 0.196,1.61 2.139,2.604 2.139,3.398 -0.378,0.975 0.231,2.294 0.979,2.982 0.019,0.018 0.042,0.037 0.076,0.064 0.121,0.102 0.245,0.189 0.366,0.253 0.386,0.295 0.87,0.76 1.009,1.051 0.174,0.378 0.484,0.506 0.484,1.081 0.42,-0.31 -0.351,-1.588 -0.771,-2.034 -1.304,-1.19 -3.114,-3.11 0.484,-3.397 0.378,-0.775 1.943,0.09 2.033,1.149 0.374,0.241 0.571,0.086 0.926,-0.133 -0.109,1.701 -1.039,2.139 -1.304,2.846 -0.245,0.658 -0.245,1.822 -0.136,2.446 -1.614,1.096 -2.162,1.084 -2.611,1.697 -0.461,0.627 -0.034,2.052 -0.461,3.809 0.793,-0.665 0.468,-2.562 0.857,-3.345 0.473,-0.941 1.924,-1.534 2.283,-1.991 1.18,0.808 -0.287,0.892 -0.393,2.154 1.104,0.93 0.696,2.34 0.155,2.34 -0.642,0 -0.907,-0.813 -0.994,-1.698 -0.487,2.408 -1.546,3.863 -1.833,4.502 0.352,-0.197 1.501,-1.81 1.943,-2.495 2.517,2.805 0.884,4.018 -0.132,3.908 -0.575,3.179 0.687,4.09 -0.133,8.149 -0.661,3.277 -2.615,5 -3.246,6.886 0.495,-0.196 0.994,-1.511 1.92,-1.587 0.722,-0.06 1.175,1.644 1.379,3.179 1.187,-1.474 2.888,-3.334 5,-3.334 3.005,0 3.799,2.736 3.799,5.741 0,3.001 -1.221,8.837 -1.315,10.42 -0.186,3.134 0.963,5.299 2.993,5.299 2.748,0 2.827,-4.592 3.092,-6.183 0.264,-1.591 1.179,-3.133 2.01,-3.133 -0.4,0.559 -0.257,1.202 -0.102,1.557 0.299,-0.363 0.798,-2.366 2.85,-2.884 5.552,-1.398 1.656,0.529 0.805,1.281 0.265,0.616 2.839,-0.419 3.885,0.265 -0.185,0.574 1.932,1.172 3.973,0.091 C 2.77,-0.506 0.816,0 0,0" />
    <path
       id="path1622"
       transform="translate(193.686,2918.44)"
       fill-rule="nonzero"
       fill="#ffffff"
       d="m 0,0 c 0.707,0 2.649,-1.194 2.649,-1.678 0,-0.488 -0.442,-0.707 -0.442,-0.707 0,0 2.43,-0.884 2.43,-3.443 0,-2.563 -1.148,-1.943 -1.148,-1.943 0,0 4.637,-6.712 4.637,-8.436 0,-1.723 -0.533,-3.62 -0.533,-4.637 0,-1.013 0.442,-2.207 0.442,-3.708 0.885,0.046 1.002,-1.455 0.972,-1.942 -0.087,-1.501 -2.162,-1.149 -2.162,-1.149 -0.046,-0.53 0.045,-0.972 -1.104,-0.972 -1.149,0 -2.339,0.31 -3.398,0.31 -0.487,0.178 -0.136,0.397 -0.31,0.575 -0.177,0.173 -2.252,0.132 -2.384,0.219 -0.133,0.091 -0.042,0.975 -0.53,0.975 -1.103,0 -0.929,-0.488 -1.149,-0.488 -0.223,0 -1.326,-0.487 -1.765,-0.487 -0.442,0 -0.619,-0.265 -1.326,-0.265 -0.707,0 -1.591,0.091 -1.678,0.62 -0.102,-0.608 -0.265,-1.107 -1.191,-1.107 -0.729,0 -1.988,0.17 -1.791,1.957 -0.163,0.397 -2.019,0.133 -1.259,1.357 0.763,1.225 2.12,1.127 2.717,0.632 0,0 0.73,1.092 -1.39,1.455 -1.044,0.181 -1.259,0.102 -1.259,0.102 0,0 0,1.156 -0.431,1.323 0.064,0.43 0.862,1.19 1.425,1.19 1.191,0 2.559,-1.213 2.427,-2.449 1.062,0.487 1.901,1.277 3.62,-0.132 -1.236,2.12 -2.294,1.236 -2.736,1.322 -0.616,0.707 -2.298,2.034 -2.914,2.253 0.219,0.31 0.045,0.748 0.045,0.748 0,0 1.059,0.575 1.059,0.93 -0.042,-0.752 0.661,-1.016 1.058,-0.661 0.4,0.351 0,1.236 0,1.236 0,0 0.752,0.442 1.636,-0.401 0.881,-0.835 0,-1.984 0,-1.984 0,0 0.756,0.801 1.765,-0.839 0.356,-0.575 1.149,-1.943 1.236,-2.162 0.091,-0.223 -0.177,0.484 0.091,0.261 0.265,-0.22 1.145,-0.926 1.72,-1.232 0.578,-0.31 3.666,-0.31 4.414,-0.401 0.752,-0.087 0.839,-0.31 0.93,-0.794 0,0 0.219,-0.132 0.264,0.223 0.046,0.352 -2.74,3.708 -4.505,5.564 -1.765,1.852 -2.029,4.017 -2.029,5.65 0,1.633 0.132,2.253 -0.087,2.604 -0.223,0.355 -2.079,2.253 -2.079,3.224 0,1.591 1.723,2.476 2.298,3.666 C -1.191,-2.43 -2.12,0 0,0" />
    <path
       id="path1624"
       transform="translate(182.646,2900.87)"
       fill-rule="nonzero"
       fill="#ffffff"
       d="M 0,0 C 0,0.442 1.33,1.712 1.856,0.661 2.43,-0.484 0.707,0 0,0" />
    <path
       id="path1626"
       transform="translate(180.307,2895.62)"
       fill-rule="nonzero"
       fill="#ffffff"
       d="M 0,0 C -0.438,0.571 1.24,1.455 1.591,0.794 2.147,-0.249 0.62,0.174 0,0" />
    <path
       id="path1628"
       transform="translate(181.102,2890.89)"
       fill-rule="nonzero"
       fill="#ffffff"
       d="M 0,0 C -0.397,0.661 0.832,2.513 1.633,1.191 2.253,0.178 0.533,0.484 0,0" />
    <path
       id="path1630"
       transform="translate(198.632,2919.77)"
       fill-rule="nonzero"
       fill="#ffffff"
       d="M 0,0 C 0.461,-0.556 3.334,-4.014 4.018,-3.489 4.925,-2.789 0.752,-0.435 0,0" />
    <path
       id="path1632"
       transform="translate(213.844,2880.05)"
       fill-rule="nonzero"
       fill="#ffffff"
       d="M 0,0 C -0.034,-0.351 0.722,-1.051 0.265,-1.126 -0.401,-1.232 -0.363,0.034 0,0" />
    <path
       id="path1634"
       transform="translate(202.76,2876.39)"
       fill-rule="nonzero"
       fill="#ffffff"
       d="M 0,0 C -0.635,0.026 0.658,2.993 1.485,2.064 2.559,0.854 0.661,1.043 0,0" />
    <path
       id="path1636"
       transform="translate(204.135,2879.47)"
       fill-rule="nonzero"
       fill="#ffffff"
       d="M 0,0 C -0.661,0.386 1.644,1.803 2.34,1.402 2.786,1.138 3.292,0.193 3.934,-0.249 3.934,-0.518 3.98,-0.945 3.647,-1.054 3.315,-1.168 1.897,-1.599 1.678,-1.489 1.459,-1.38 1.3,-1.164 1.293,-0.884 1.017,-0.93 0.469,-0.692 0.359,-0.552 0.246,-0.416 0,0 0,0" />
    <path
       id="path1638"
       transform="translate(207.453,2881.47)"
       fill-rule="nonzero"
       fill="#ffffff"
       d="M 0,0 C 0.582,0.34 1.667,-1.315 1.054,-1.674 0.329,-1.667 -0.408,-0.351 0,0" />
    <path
       id="path1640"
       transform="translate(208.153,2881.83)"
       fill-rule="nonzero"
       fill="#ffffff"
       d="M 0,0 C 0.438,-0.548 1.274,-2.226 2.09,-1.924 2.744,-1.686 2.135,1.338 0,0" />
    <path
       id="path1642"
       transform="translate(207.245,2873)"
       fill-rule="nonzero"
       fill="#ffffff"
       d="M 0,0 C 0.06,0.831 1.213,1.308 0.412,1.844 -0.389,2.377 -0.797,0.083 0,0" />
    <path
       id="path1644"
       transform="translate(212.423,2872.35)"
       fill-rule="nonzero"
       fill="#ffffff"
       d="M 0,0 C -0.166,0.563 0.873,1.478 0,1.844 -0.873,2.207 -0.854,0 0,0" />
    <path
       id="path1646"
       transform="translate(211.508,2874.32)"
       fill-rule="nonzero"
       fill="#ffffff"
       d="M 0,0 C -0.329,-0.491 -1.406,0.828 -0.386,1.376 -0.231,1.723 0.166,2.763 0.797,2.589 3.594,5.295 6.259,-0.333 1.761,0.026 1.655,0.79 3.133,0.941 2.23,1.183 1.546,1.368 1.194,1.24 1.02,1.429 0.881,1.266 1.028,0.745 1.183,0.495 0.907,0.412 0.299,0.677 0.11,1.02 -0.193,0.881 -0.015,0.231 0,0" />
    <path
       id="path1648"
       transform="translate(233.052,2916.48)"
       fill-rule="nonzero"
       fill="#ffffff"
       d="M 0,0 C 0.684,-0.949 1.569,-2.139 0.597,-4.505 1.878,-5.189 3.292,-0.068 0,0" />
    <path
       id="path1650"
       transform="translate(208.656,2932.79)"
       fill-rule="nonzero"
       fill="#ffffff"
       d="M 0,0 C 0,0 1.323,-2.162 1.897,-2.74 2.472,-3.311 4.15,-3.972 4.414,-3.708 4.679,-3.443 3.179,-2.559 2.736,-2.12 2.294,-1.678 0.62,0 0.31,0.31 0,0.62 0,0 0,0" />
    <path
       id="path1652"
       transform="translate(210.753,2934.45)"
       fill-rule="nonzero"
       fill="#ffffff"
       d="m 0,0 c 1.5,-1.104 5.189,-3.511 6.38,-3.511 1.194,0 1.795,-0.858 0.574,-1.058 C 4.26,-5.012 0.31,-1.856 -0.707,-0.839 -1.723,0.178 -1.5,1.104 0,0" />
    <path
       id="path1654"
       transform="translate(212.276,2935.18)"
       fill-rule="nonzero"
       fill="#ffffff"
       d="m 0,0 c 1.338,-1.266 3.179,-2.959 6.225,-3.311 3.05,-0.355 2.608,0.616 1.24,0.971 C 6.096,-1.988 3.05,-1.368 1.591,0.087 0.132,1.546 -0.839,0.794 0,0" />
    <path
       id="path1656"
       transform="translate(213.027,2936.68)"
       fill-rule="nonzero"
       fill="#ffffff"
       d="m 0,0 c 1.757,-1.757 5.431,-2.695 8.477,-3.092 3.047,-0.397 2.298,1.852 0.265,1.852 -2.03,0 -5.431,0.752 -7.064,1.901 C 0.045,1.81 -1.432,1.436 0,0" />
    <path
       id="path1658"
       transform="translate(215.898,2937.56)"
       fill-rule="nonzero"
       fill="#ffffff"
       d="M 0,0 C 2.385,-0.854 4.902,-1.497 7.948,-1.81 10.995,-2.124 12.805,-0.574 9.23,0.045 5.654,0.661 4.241,1.678 1.856,2.207 -0.529,2.74 -1.841,0.661 0,0" />
    <path
       id="path1660"
       transform="translate(219.076,2940.74)"
       fill-rule="nonzero"
       fill="#ffffff"
       d="m 0,0 c 3.345,-1.376 7.465,-2.823 9.982,-2.472 2.517,0.352 5.163,2.608 2.823,2.608 -2.339,0 -8.122,-0.045 -10.42,1.278 C 0.087,2.74 -2.011,0.831 0,0" />
    <path
       id="path1662"
       transform="translate(221.504,2942.73)"
       fill-rule="nonzero"
       fill="#ffffff"
       d="M 0,0 C 3.874,-0.941 8.874,-1.856 11.834,-0.752 14.793,0.351 13.489,2.098 11.792,1.5 10.091,0.903 3.179,1.149 1.637,1.633 0.087,2.12 -2.551,0.62 0,0" />
    <path
       id="path1664"
       transform="translate(223.271,2945.11)"
       fill-rule="nonzero"
       fill="#ffffff"
       d="M 0,0 C 7.378,-0.752 10.556,-1.183 15.587,2.649 18.369,4.77 14.396,3.575 13.512,3.311 12.631,3.046 4.018,2.162 1.5,2.43 -1.017,2.695 -1.943,0 -0.178,0 Z" />
    <path
       id="path1666"
       transform="translate(224.685,2948.47)"
       fill-rule="nonzero"
       fill="#ffffff"
       d="M 0,0 C 6.403,-0.053 10.995,-0.998 15.322,3.311 17.295,5.276 17.223,7.465 13.38,6.006 8.833,4.282 5.477,3.046 1.587,3.046 -2.294,3.046 -1.988,0.015 0,0" />
    <path
       id="path1668"
       transform="translate(226.187,2951.96)"
       fill-rule="nonzero"
       fill="#ffffff"
       d="m 0,0 c 4.547,0 12.34,3.118 14.604,3.787 3.012,0.892 2.661,4.294 0.541,3.145 C 13.024,5.786 3.753,1.723 1.058,1.723 -1.637,1.723 -0.93,0 0,0" />
    <path
       id="path1670"
       transform="translate(226.893,2954.25)"
       fill-rule="nonzero"
       fill="#ffffff"
       d="m 0,0 c 4.528,0 16.467,6.357 17.31,7.684 0.836,1.323 1.898,3.707 -0.574,2.029 C 14.26,8.035 6.357,2.34 2.162,2.12 -2.033,1.897 -0.484,0 0,0" />
    <path
       id="path1672"
       transform="translate(228.613,2956.73)"
       fill-rule="nonzero"
       fill="#ffffff"
       d="m 0,0 c 2.903,0 12.522,5.499 14.487,7.465 1.962,1.965 4.074,4.951 3.795,5.472 -0.42,0.798 -2.907,-1.629 -4.857,-3.046 C 11.172,8.258 1.637,2.34 0.442,2.12 -0.748,1.897 -1.104,0 0,0" />
    <path
       id="path1674"
       transform="translate(228.084,2959)"
       fill-rule="nonzero"
       fill="#ffffff"
       d="m 0,0 c 5.31,2.755 13.523,7.616 17.62,11.259 2.272,2.022 4.562,6.221 4.109,6.758 -0.681,0.79 -3.512,-3.114 -5.432,-5.034 C 13.346,10.035 2.449,2.714 0.93,1.856 -0.597,0.994 -1.414,-0.733 0,0" />
    <path
       id="path1676"
       transform="translate(212.652,2975.15)"
       fill-rule="nonzero"
       fill="#ffffff"
       d="m 0,0 c 0,-0.136 -0.11,-0.249 -0.249,-0.249 h -5.828 c -0.137,0 -0.25,0.113 -0.25,0.249 0,0.136 0.113,0.249 0.25,0.249 h 5.828 C -0.11,0.249 0,0.136 0,0" />
    <path
       id="path1678"
       transform="translate(222.147,2906.7)"
       fill-rule="nonzero"
       fill="#ffffff"
       d="m 0,0 c 0.227,0.068 0.949,0.627 1.017,0.881 0,0 0.344,-0.839 0.079,-1.017 C 0.707,-0.389 0,0 0,0" />
    <path
       id="path1680"
       transform="translate(183.663,2949.35)"
       fill-rule="nonzero"
       fill="#ffffff"
       d="m 0,0 c 0,0 2.011,-0.794 2.408,-1.414 0,0.598 -0.397,1.569 -0.821,1.988 C 2.385,0.019 3.08,-0.144 3.356,0.132 2.74,1.104 1.414,2.075 1.414,2.381 2.294,2.007 2.827,2.23 2.827,2.563 2.374,3.012 1.414,4.173 0.971,4.414 1.878,4.237 1.833,4.305 2.253,4.724 1.459,5.144 1.191,5.983 0.442,6.357 1.213,6.512 1.149,6.822 1.534,6.988 1.104,7.155 0.442,7.551 0.442,7.926 c 0.639,0.219 0.904,0.351 0.904,0.748 0,0.397 -0.552,0.975 -0.552,1.395 0,0.415 0.355,0.816 0.355,1.103 0,0.288 -0.2,1.41 0.862,1.765 0.899,0.299 1.387,0.616 2.271,0.352 0.885,-0.265 1.943,-0.132 1.943,0.797 0,0.926 -0.31,0.771 -0.31,1.323 0,0.556 0.378,1.108 -0.31,1.368 -1.379,0.533 -2.914,-1.3 -4.191,-0.926 -0.424,0.125 0.086,2.34 1.19,2.695 1.104,0.352 1.21,1.618 0.045,2.604 -2.592,2.196 -1.708,-1.334 -2.415,-2.041 -0.706,-0.706 -1.572,-2.43 -2.343,-2.01 -0.771,0.419 -1.886,1.954 -2.173,2.241 -0.631,0.627 2.472,3.753 -1.943,2.12 -4.418,-1.633 -0.809,-2.06 0.926,-3.224 3.621,-2.426 -0.865,0.269 0.42,-1.436 0.283,-0.374 1.077,-1.073 0.903,-2.037 C -4.15,13.799 -5.11,13.875 -5.257,13.425 -5.48,12.722 -5.227,11.89 -5.809,11.191 -7,9.759 -11.085,7.967 -7.551,7.374 c 0.695,0.695 2.01,0.442 1.723,-0.794 1.368,-0.684 1.943,1.478 1.236,2.559 -0.344,0.525 0.109,2.695 1.81,2.695 1.701,0 1.478,-1.017 1.746,-1.678 C -0.771,9.494 -0.994,6.334 -0.529,5.873 -0.068,5.409 0,0 0,0" />
    <path
       id="path1682"
       transform="translate(161.879,2951.6)"
       fill-rule="nonzero"
       fill="#ffffff"
       d="M 0,0 C 0.314,0.317 0.835,0.692 2.132,0.129 3.099,-0.295 2.453,-1.107 1.769,-0.703 1.081,-0.295 0.707,-0.106 0,0" />
    <path
       id="path1684"
       transform="translate(166.035,2955.01)"
       fill-rule="nonzero"
       fill="#ffffff"
       d="M 0,0 C 1.606,1.119 2.82,-1.043 2.925,-1.346 2.888,-1.504 2.09,-1.848 1.969,-1.637 1.852,-1.225 0.654,0 0,0" />
    <path
       id="path1686"
       transform="translate(171.04,2932.52)"
       fill-rule="nonzero"
       fill="#ffffff"
       d="M 0,0 C 0.578,0.578 1.323,1.833 0.835,2.529 0.147,3.511 -1.081,2.324 -0.544,1.788 -0.015,1.259 0.321,1.024 0,0" />
    <path
       id="path1688"
       transform="translate(198.08,2947.14)"
       fill-rule="nonzero"
       fill="#ffffff"
       d="m 0,0 -4.241,-1.391 -6.126,-6.588 c -0.628,-1.424 -2.517,-1.424 -3.84,-1.424 -1.323,0 -0.813,-0.118 -0.333,0.362 0.48,0.48 -0.627,0.53 -1.455,0.53 -1.644,0 1.16,0.846 -1.674,0.846 -2.51,0 0.491,0.646 -1.867,0.945 -2.363,0.295 0.041,0.495 -1.822,0.824 -1.871,0.333 0.627,0.355 -1.625,0.797 -2.253,0.443 -0.798,0.76 -1.293,0.926 -0.495,0.167 -4.403,1.327 -4.403,6.558 0,1.024 1.455,1.395 1.323,2.517 -0.132,1.123 -1.191,1.16 -1.984,0.862 -0.798,-0.299 -1.293,-1.096 -1.293,-1.096 0,0 -0.896,0.136 -1.988,-0.529 0.355,-0.352 -0.609,-1.467 -1.448,-0.926 -1.806,-1.542 3.05,-3.829 4.143,-4.377 0.423,-0.325 -5.575,2.355 -6.04,0.93 0.699,-0.7 0.684,-1.353 -0.231,-1.52 -0.415,-1.043 1.754,-1.689 4.173,-1.689 2.419,0 1.996,-0.552 2.26,-0.813 0.265,-0.264 1.739,-0.136 1.811,-2.301 0.124,-3.512 -2.072,-7.174 0.034,-5.863 0.124,1.403 1.239,1.633 1.746,1.123 2.528,0.608 -2.083,3.012 -0.835,4.524 1.251,1.512 3.926,-0.348 5.514,-1.372 1.591,-1.028 9.838,-4.275 11.361,-4.671 0.147,-0.038 0.265,-0.023 0.355,0.037 v -0.003 l 7.427,-7.582 2.823,1.081 2.907,8.886 z" />
    <path
       id="path1690"
       transform="translate(208.788,2930.32)"
       fill-rule="nonzero"
       fill="#1d1d1b"
       d="m 0,0 c 0,1.765 1.414,2.563 2.075,2.563 0.665,0 -0.355,1.016 0.665,1.016 1.021,0 1.255,0.238 1.554,0.537 0.298,0.298 1.183,1.315 1.712,1.315 0.529,0 1.062,0.552 1.062,0.96 0,0.408 0.967,0.408 0.967,0.408 0,0 1.153,0.885 1.153,1.327 0,0.442 1.104,0.132 1.41,0.442 0.31,0.306 1.546,0.926 1.239,1.236 -0.309,0.31 1.172,1.81 1.701,1.644 0.526,-0.162 0.681,1.622 1.3,1.622 0.616,0 0.598,1.545 1.384,1.545 0.782,0 1.001,1.104 0.559,1.104 -0.442,0 0.359,1.448 0.798,1.455 0.442,0.008 1.307,0.484 0.873,0.919 -0.431,0.43 -0.522,2.66 -0.083,2.66 0.442,0 1.504,2.177 0.978,2.703 -0.525,0.521 0.257,1.009 0.526,1.27 0.926,0.929 2.203,3.447 0.971,3.447 -1.236,0 -0.597,0.782 -0.113,1.266 0.483,0.484 2.849,5.181 2.849,5.181 0,0 3.818,3.553 4.506,4.237 0.971,0.972 1.209,4.483 0.793,4.902 -0.419,0.42 -4.327,-3.401 -4.327,-3.401 -0.533,0 -6.093,-1.943 -7.151,-3.001 -1.062,-1.058 -1.769,-1.058 -1.769,-1.058 0,0 0.862,5.816 0.038,4.868 -0.352,-0.405 -3.598,-4.23 -3.598,-4.23 -0.442,-0.548 -2.359,-3.379 -2.359,-3.379 0,0 -1.409,-0.087 -2.736,-2.736 -1.323,-2.649 -5.563,-7.242 -6.093,-7.771 -0.529,-0.533 -3.885,-7.51 -3.885,-8.035 0,-0.533 0.265,-10.159 0.265,-10.159 z" />
    <path
       id="path1692"
       transform="translate(233.207,2970.42)"
       fill-rule="nonzero"
       fill="#ffffff"
       d="m 0,0 c 1.368,0.62 3.844,2.691 3.844,2.691 0,0 0.128,-2.071 -0.575,-2.956 -0.706,-0.884 -4.063,-3.31 -4.327,-3.666 -0.269,-0.351 -0.707,-1.5 -1.24,-1.723 -0.529,-0.219 -0.393,4.327 -0.393,4.327 z" />
    <path
       id="path1694"
       transform="translate(229.056,2968.43)"
       fill-rule="nonzero"
       fill="#ffffff"
       d="M 0,0 C 2.162,1.058 3.489,1.546 4.018,1.943 4.547,2.343 4.679,-0.484 3.844,-1.546 3.001,-2.604 2.075,-3.753 0.926,-4.282 -0.223,-4.811 -1.81,-5.386 -2.472,-5.563 -3.137,-5.741 -4.063,-5.696 -4.063,-5.696 l 1.323,3.621 z" />
    <path
       id="path1696"
       transform="translate(229.056,2968.43)"
       stroke-width="0.53"
       stroke="#1d1d1b"
       fill="none"
       d="M 0,0 C 2.162,1.058 3.489,1.546 4.018,1.943 4.547,2.343 4.679,-0.484 3.844,-1.546 3.001,-2.604 2.075,-3.753 0.926,-4.282 -0.223,-4.811 -1.81,-5.386 -2.472,-5.563 -3.137,-5.741 -4.063,-5.696 -4.063,-5.696 l 1.323,3.621 z" />
    <path
       id="path1698"
       transform="translate(229.012,2968.61)"
       fill-rule="nonzero"
       fill="#1d1d1b"
       d="m 0,0 c 0.748,0.529 1.455,-0.087 1.455,-1.236 0,-1.149 -2.604,-3.534 -3.795,-4.282 -1.194,-0.752 -3.972,0.306 -3.972,0.306 l 3.043,4.592 z" />
    <path
       id="path1700"
       transform="translate(225.131,2962.18)"
       fill-rule="nonzero"
       fill="#ffffff"
       d="M 0,0 C 1.587,0.435 4.123,1.096 4.989,1.557 5.854,2.018 5.076,-0.257 3.893,-1.153 2.71,-2.049 3.084,-2.827 2.306,-3.606 1.527,-4.38 -1.24,-5.015 -1.414,-5.072 c -0.17,-0.057 -0.083,3.976 -0.083,3.976 z" />
    <path
       id="path1702"
       transform="translate(225.131,2962.18)"
       stroke-width="0.53"
       stroke="#1d1d1b"
       fill="none"
       d="M 0,0 C 1.587,0.435 4.123,1.096 4.989,1.557 5.854,2.018 5.076,-0.257 3.893,-1.153 2.71,-2.049 3.084,-2.827 2.306,-3.606 1.527,-4.38 -1.24,-5.015 -1.414,-5.072 c -0.17,-0.057 -0.083,3.976 -0.083,3.976 z" />
    <g
       id="g1808"
       fill-rule="nonzero">
      <path
         id="path1704"
         transform="translate(225.965,2957.54)"
         fill="#ffffff"
         d="m 0,0 c -0.529,-0.529 -1.455,-0.068 -1.225,0.166 0.231,0.231 0.231,1.161 0.231,1.622 0,0.465 -0.299,1.028 0.2,1.523 0.495,0.499 0.862,1.856 0.862,2.653 0,0.794 1.894,1.55 2.513,2.117 1.524,1.39 1.002,1.912 0.73,2.585 C 1.977,10.231 -1.327,8.277 -1.856,7.155 -2.385,6.028 -4.804,2.948 -5.034,1.587 -5.265,0.234 -6.69,-3.643 -7.287,-5.431 c -0.593,-1.788 -2.846,-6.425 -4.634,-8.213 -1.787,-1.788 -4.902,-3.644 -4.902,-3.644 l -0.431,0.431 0.231,0.828 -0.926,1.126 v 1.195 c 0,0 0.132,0.593 0.132,1.058 0,0.461 -0.431,0.597 -0.431,0.892 0,0.298 0.231,0.763 -0.098,0.763 -0.332,0 -0.729,-0.597 -0.729,-1.058 0,-0.465 -0.223,-1.682 -0.223,-1.999 0,-0.322 -0.431,-0.718 -0.832,-0.318 -0.4,0.397 -1.289,2.956 -0.665,3.576 0.616,0.616 0.794,2.207 1.765,3.178 0.971,0.972 4.184,3.334 4.237,5.651 0.023,0.971 -0.174,2.517 0.661,2.12 0.839,-0.397 0.182,-1.191 0.182,-1.72 0,-0.521 2.018,1.093 1.383,1.966 1.107,-0.616 0.446,-0.998 -0.503,-2.499 -0.283,-0.446 -0.109,-1.171 -0.619,-1.678 -0.507,-0.506 -3.047,-3.972 -3.712,-5.299 -0.658,-1.322 0.355,-1.942 0.624,-3.046 0.26,-1.104 1.111,-2.086 1.742,-1.459 0.627,0.631 -0.896,1.557 -0.896,2.022 0,0.461 0.93,0.529 0.93,1.058 0,0.53 0.034,4.045 0.892,4.045 0.499,-0.896 -0.162,-2.85 -0.162,-3.942 0,-1.327 1.421,-1.259 1.719,1.587 0.431,-2.12 2.253,-1.092 1.077,1.708 -0.57,1.353 -0.612,3.791 0.975,5.379 -2.679,-6.127 0.892,-2.582 1.399,-2.079 0.503,0.502 0.423,2.71 0.261,3.205 -0.167,0.499 0.627,1.493 1.107,0.117 0.48,-1.376 0.132,0.76 0.132,1.557 0,0.794 -0.778,2.6 -1.455,2.748 -0.68,0.151 -2.301,1.474 -1.674,2.101 0.631,0.631 -0.314,1.573 -0.064,1.822 0.245,0.249 1.323,0 1.323,0 0,0 -1.331,1.848 -1.49,2.453 1.028,0 3.081,-3.863 3.285,-3.863 0.204,0 0.332,0.329 0.332,0.329 0,0 -1.931,2.226 -1.931,3.402 0,0.506 1.493,5.132 1.493,5.132 0,0 -1.493,-5.132 -2.585,-4.01 -1.399,1.444 1.659,3.492 1.16,5.035 0,0 -2.634,-0.892 -2.634,-4.351 -0.219,0.533 -0.915,2.684 -1.811,3.757 -0.601,0.722 -1.682,0.495 -4.131,0.495 -3.825,0 -3.711,-1.391 -3.711,-2.052 0,-1.591 3.28,-3.972 3.28,-5.363 -0.366,0 -3.518,4.169 -3.809,4.736 -0.291,0.566 -0.333,1.719 -0.333,1.719 0,0 -0.518,0.828 -1.92,0.529 -5.223,-1.111 -3.178,-4.834 -2.184,-5.363 0,0 0.631,1.043 1.87,1.043 2.865,0 2.998,-6.054 8.009,-6.784 -0.729,-0.729 -5.098,-0.091 -5.344,-0.85 -0.242,-0.76 -1.459,-0.386 -1.962,-1.334 0.087,-0.356 1.104,-0.666 1.765,-1.081 0.662,0 2.23,3.019 3.731,1.145 0.907,-1.134 0.094,-3.496 0.094,-3.496 0,0 0.828,0.038 1.372,0.582 -0.559,-0.881 -1.073,-2.672 -1.073,-2.672 0,0 2.045,1.217 2.045,2.906 0.257,0 0.143,-1.005 -0.348,-2.234 -0.495,-1.228 -1.807,-2.842 -4.233,-5.616 -0.329,0.208 -0.885,0.971 -0.885,0.971 0,0 -1.322,-1.058 -2.203,-1.058 -0.884,0 -3.402,-0.132 -3.798,-0.529 -0.397,-0.401 -1.769,-0.797 -1.769,-1.153 0,-0.351 -0.968,-1.765 -0.968,-1.765 0,0 -2.033,-0.264 -1.062,-2.649 0.971,-2.381 1.149,-3.973 1.769,-5.828 0.616,-1.856 2.271,-4.883 2.271,-4.883 0.167,-0.787 0.257,-1.686 0.31,-2.446 0.065,-0.948 0.065,-1.678 0.065,-1.678 0,0 1.553,2.313 1.553,3.424 0,1.112 1.081,1.24 1.538,1.24 0.896,0 0.752,-1.531 0.265,-2.018 -0.488,-0.484 0.442,-1.41 0.442,-1.41 0,0 0.62,0.794 0.62,1.5 0,0.707 0.529,2.121 0.529,2.121 0,0 1.383,0.605 1.497,1.085 0.113,0.48 0.045,-1.58 -0.068,-2.174 -0.118,-0.597 1.107,-1.75 1.462,-2.101 0.794,-0.798 1.365,-1.425 1.58,-1.206 0.216,0.216 -0.729,1.327 -0.729,1.89 0,0.563 -0.794,0.265 -0.794,0.926 0,0.665 -0.2,2.717 -0.2,2.914 0,0.2 0.397,0 0.695,0 0.299,0 1.092,-0.465 1.327,-0.695 0.23,-0.231 0.359,-0.42 0.48,0.018 0.121,0.435 -0.038,1.38 0.484,1.38 0.525,0 0.907,-0.454 1.156,-0.703 0.246,-0.249 0.661,-0.166 0.661,0.166 0,0.333 0.673,0.737 1.131,1.195 0.457,0.453 0.725,1.19 1.054,1.19 0.329,0 1.024,0.299 1.024,0.631 0,0.329 0.386,0.446 0.533,0.594 0.148,0.147 0.911,0.019 1.028,0.132 0.114,0.117 0.197,0.729 0.197,0.729 0,0 0.926,-0.332 1.16,-0.098 0.231,0.231 0,1.289 0.461,1.754 0.465,0.465 1.327,0.298 1.656,0.627 0.332,0.333 0.793,0.681 0.963,0.851 0.174,0.17 -0.034,0.971 0.197,1.205 0.234,0.231 1.043,0.015 1.293,0.265 0.249,0.249 0.249,1.308 0.249,1.308 0,0 0.726,0.166 0.911,0.347 0.181,0.182 -0.764,0.529 -0.764,0.794 0,0.265 -0.068,0.593 0.14,0.729 0.204,0.137 1.822,0.605 2.147,1.191 0.476,0.881 -0.718,0.533 -0.597,1.758 0.117,1.228 0.344,0.744 0.695,1.092 0.348,0.351 1.758,0.831 1.758,1.391 0,0.563 -0.73,0.695 -0.73,1.224 0,0.529 1.607,1.452 2.155,2 0.548,0.548 1.614,1.583 0.952,2.248 C 2.642,1.1 0.529,0.529 0,0" />
      <path
         id="path1706"
         transform="translate(206.211,2970.76)"
         fill="#1d1d1b"
         d="m 0,0 c 1.516,-0.529 1.663,-1.383 1.663,-1.924 0.9,0.219 0.847,1.028 0.767,1.108 0.223,0 0.733,0.083 1.074,0.26 C 3.163,0.17 2.411,0.401 1.826,0.401 0.745,0.401 0,0 0,0" />
      <path
         id="path1708"
         transform="translate(200.581,2960.97)"
         fill="#ffffff"
         d="m 0,0 c 0,0 -1.417,0.242 -1.992,0.242 -0.574,0 -0.397,-0.174 -0.287,-0.287 0.11,-0.11 -0.442,-0.352 0.155,-0.352 0.597,0 0.983,0.484 2.124,0.397" />
      <path
         id="path1710"
         transform="translate(205.619,2962.64)"
         fill="#ffffff"
         d="M 0,0 C 0,0 -2.317,0.495 -3.254,0.495 -4.191,0.495 -3.84,0.174 -3.723,-0.091 -3.541,-0.506 -1.867,0.178 0,0" />
      <path
         id="path1712"
         transform="translate(202.755,2961.48)"
         fill="#ffffff"
         d="M 0,0 C 0,0 -1.255,-0.809 -1.799,-0.892 -2.347,-0.975 -2.2,-0.556 -2.181,-0.223 -2.154,0.302 -1.051,-0.386 0,0" />
      <path
         id="path1714"
         transform="translate(215.693,2962.13)"
         fill="#ffffff"
         d="M 0,0 C 0.423,0.911 -0.106,3.47 1.175,2.192 2.457,0.911 0.82,0.911 0.82,0.911 c 0,0 -0.601,-0.839 -0.601,-1.13 C 0.219,-0.506 0,0 0,0" />
      <path
         id="path1716"
         transform="translate(220.337,2960.69)"
         fill="#ffffff"
         d="m 0,0 -0.945,0.945 c 0.68,1.44 0.31,2.71 0.877,3.526 1.451,1.448 1.44,1.474 3.711,4.471 0,0 0.114,-2.664 -0.963,-3.745 C 1.603,4.123 0.529,3.409 0.529,2.449 0.529,1.489 0.465,0.465 0,0" />
      <path
         id="path1718"
         transform="translate(224.42,2966.62)"
         fill="#ffffff"
         d="m 0,0 0.253,3.046 c 0,0 3.576,4.623 5.333,7.949 2.211,4.195 2.699,7.6 2.699,8.594 0,0.994 1.375,0.677 1.175,-1.406 -0.2,-2.09 -0.661,-4.902 -3.178,-10 C 3.764,3.08 0,0 0,0" />
      <path
         id="path1720"
         transform="translate(218.679,2962.33)"
         fill="#ffffff"
         d="m 0,0 c -0.242,0.242 -0.506,0.506 -0.506,0.506 0,0 0.816,1.35 0.816,0.821 C 0.31,0.794 0,0 0,0" />
      <path
         id="path1722"
         transform="translate(227.583,2968.55)"
         fill="#ffffff"
         d="M 0,0 C 1.077,1.512 4.033,5.666 5.136,8.712 5.749,10.405 6.773,9.857 6.021,7.873 5.269,5.885 2.306,1.274 1.856,0.82 1.209,0.567 0,0 0,0" />
      <path
         id="path1724"
         transform="translate(217.157,2961.92)"
         fill="#ffffff"
         d="M 0,0 C 1.236,-0.586 3.424,-3.98 2.816,-1.856 2.445,-0.571 0.96,-0.064 0.529,0.197 0.098,0.461 -0.484,0.231 0,0" />
      <path
         id="path1726"
         transform="translate(175.445,2973.36)"
         fill="#ffffff"
         d="M 0,0 C 1.081,0.62 2.007,0.283 2.547,-0.949 2.816,-1.538 1.489,-1.92 1.338,-1.463 1.02,-0.435 0,0 0,0" />
      <path
         id="path1728"
         transform="translate(192.737,2966.67)"
         fill="#ffffff"
         d="m 0,0 c 0.374,-0.609 0.359,-2.033 -1.523,-2.683 -0.926,-0.318 -1.406,1.164 -0.374,1.368 1.141,0.226 1.886,1.36 1.886,1.36 z" />
      <path
         id="path1730"
         transform="translate(184.436,2974.85)"
         fill="#ffffff"
         d="M 0,0 C 1.119,0.098 2.298,-0.775 1.716,-2.914 1.557,-3.511 0.181,-3.179 0.314,-2.804 0.703,-1.954 0.998,-1.202 0,0" />
      <path
         id="path1732"
         transform="translate(174.811,2954.16)"
         fill="#ffffff"
         d="M 0,0 C 0.574,0.344 1.104,1.213 1.346,1.746 1.912,2.997 3.05,2.26 2.604,1.346 2.241,0.605 1.5,0 0,0" />
      <path
         id="path1734"
         transform="translate(159.272,2944.91)"
         fill="#ffffff"
         d="M 0,0 C 0,1.542 1.372,1.92 2.049,1.92 2.77,1.92 3.111,0.786 2.203,0.786 1.323,0.786 0.472,0.631 0,0" />
      <path
         id="path1736"
         transform="translate(166.999,2952.13)"
         fill="#1d1d1b"
         d="m 0,0 c -0.023,-0.072 -0.155,-0.166 -0.083,-0.166 0.571,0 1.693,-2.843 1.791,-3.394 C 1.807,-4.108 2.12,-4.18 2.12,-4.108 2.12,-3.436 1.16,-0.11 0.249,0.17 0.178,0.193 0.023,0.072 0,0" />
      <path
         id="path1738"
         transform="translate(201.031,2954.7)"
         fill="#ffffff"
         d="m 0,0 c 0.937,-2.661 3.473,-3.764 4.49,-2.748 1.017,1.017 1.587,2.65 1.587,3.357 0,0.706 -0.529,0.264 -0.529,0.264 0,0 -0.911,-2.181 -1.897,-2.392 C 2.668,-1.731 2.215,-2.215 0,0" />
      <path
         id="path1740"
         transform="translate(198.126,2951.72)"
         fill="#ffffff"
         d="m 0,0 c 0.083,-0.181 -1.791,-0.737 -2.759,-0.737 -0.971,0 -1.758,0.185 -1.758,0.695 0,0.514 0.787,0.926 1.758,0.926 C -1.791,0.884 -0.238,0.51 0,0" />
      <path
         id="path1742"
         transform="translate(191.307,2955.84)"
         fill="#ffffff"
         d="m 0,0 c -1.538,-1.013 -1.527,-3.882 0.968,-5.337 2.589,-1.512 6.47,0.186 6.47,0.186 0,0 -0.484,0.548 -0.62,1.035 C 3.111,-6.013 0,-5.318 0,0" />
      <path
         id="path1744"
         transform="translate(196.314,2954.56)"
         fill="#ffffff"
         d="M 0,0 C -0.729,-0.333 -1.568,-0.775 -2.294,-1.191 -3.024,-1.614 0.873,-1.512 0.62,-1.436 0.178,-1.3 0,0 0,0" />
      <path
         id="path1746"
         transform="translate(191.855,2950.46)"
         fill="#ffffff"
         d="M 0,0 C 0.903,-0.907 2.275,-1.281 4.569,-1.368 6.864,-1.459 6.641,-0.272 5.254,-0.51 1.391,-1.168 0,0 0,0" />
      <path
         id="path1748"
         transform="translate(190.264,2950.12)"
         fill="#ffffff"
         d="m 0,0 c 0.132,-1.16 0.113,-1.92 4.879,-3.179 0.662,0 -0.57,1.221 -0.895,1.297 C 0.96,-1.183 0,0 0,0" />
      <path
         id="path1750"
         transform="translate(184.457,2945.91)"
         fill="#ffffff"
         d="M 0,0 C 1.062,-0.484 1.946,-2.782 1.946,-2.782 L 0.397,-2.075 Z" />
      <path
         id="path1752"
         transform="translate(191.082,2945.16)"
         fill="#ffffff"
         d="m 0,0 c -1.546,0.484 -2.604,0.726 -1.788,0.726 0.817,0 3.908,0.555 2.362,0.555 -1.545,0 -3.843,0.749 -5.121,2.117 -0.525,0.559 0.136,-1.418 0.972,-2.249 -0.242,0.253 -1.335,0.979 -1.682,1.323 -2.491,2.494 -4.759,0.177 -4.192,0.355 3.443,1.058 4.063,-2.256 4.547,-2.256 0.488,0 1.678,-0.594 1.678,-0.594 0,0 0.011,0 0.019,0.008 0.824,-0.65 1.875,-0.869 3.027,-0.869 1.505,0 1.724,0.396 0.178,0.884" />
      <path
         id="path1754"
         transform="translate(181.277,2944.58)"
         fill="#ffffff"
         d="M 0,0 C -1.262,0.631 4.154,-1.414 5.125,-1.633 6.096,-1.852 3.447,-1.765 2.207,-1.323 0.971,-0.881 0.884,-0.442 0,0" />
      <path
         id="path1756"
         transform="translate(187.02,2939.11)"
         fill="#ffffff"
         d="m 0,0 c 0.227,1.153 0.242,2.317 1.414,2.869 1.167,0.551 1.632,0.62 1.012,0 C 1.81,2.253 0.386,0.994 0,0" />
      <path
         id="path1758"
         transform="translate(176.289,2944.45)"
         fill="#ffffff"
         d="m 0,0 c 1.402,1.262 1.897,1.058 2.166,1.058 0.264,0 3.794,-2.12 4.853,-2.558 1.062,-0.443 3.624,-0.356 4.947,0 1.327,0.351 -1.569,-1.524 -1.988,-1.947 C 9.562,-3.863 8.126,-4.282 6.27,-2.782 4.414,-1.281 2.604,0.616 1.988,0.616 1.368,0.616 0,0 0,0" />
      <path
         id="path1760"
         transform="translate(176.2,2935.22)"
         fill="#ffffff"
         d="m 0,0 c -0.707,0.707 -1.009,1.262 -0.926,2.162 0.079,0.903 1.281,1.149 1.281,1.149 L 1.897,2.517 c 0,0 -0.438,-0.132 -1.455,-0.487 C -0.571,1.678 -0.374,0.374 0,0" />
      <path
         id="path1762"
         transform="translate(178.717,2937.56)"
         fill="#ffffff"
         d="m 0,0 c -1.017,-0.484 -2.075,-0.31 -2.385,-1.149 -0.453,-1.24 0.355,-2.075 0.752,-2.472 0.397,-0.397 1.875,-0.862 2.824,0.087 0.952,0.949 0.268,1.724 -1.146,1.459 1.104,-1.104 -1.304,-0.484 -0.948,0.064 0.351,0.556 2.184,1.259 2.184,1.259 z" />
      <path
         id="path1764"
         transform="translate(180.528,2936.61)"
         fill="#ffffff"
         d="m 0,0 c 0.299,-0.763 0.329,-1.686 0.132,-2.782 -0.196,-1.096 0.926,-1.689 1.293,-1.689 0.363,0 1.754,0.2 1.954,0.994 -0.847,-0.25 -1.489,-0.2 -1.758,0.064 -0.264,0.265 -0.211,1.973 0.45,2.634 z" />
      <path
         id="path1766"
         transform="translate(185.793,2934.39)"
         fill="#ffffff"
         d="m 0,0 c -0.597,-0.597 -1.523,-0.794 -1.954,-2.449 -0.431,-1.656 0,-3.511 1.293,-4.142 1.292,-0.628 1.523,-0.065 1.523,-0.065 0,0 -1.656,0.96 -1.656,2.65 0,1.689 2.982,3.541 2.982,3.541 z" />
      <path
         id="path1768"
         transform="translate(182.052,2931.75)"
         fill="#ffffff"
         d="M 0,0 C 0,-0.333 0.529,-2.649 0.994,-3.114 1.191,-2.041 0.9,-0.261 1.455,0.299 0.729,0.064 0,0 0,0" />
      <path
         id="path1770"
         transform="translate(188.965,2934.15)"
         fill="#ffffff"
         d="m 0,0 c -0.763,-0.763 -3.882,-1.92 -3.36,-4.346 0.525,-2.427 2.256,-0.48 1.648,-4.808 4.293,1.965 -2.672,6.818 3.042,7.759 C 2.615,-0.711 0.76,0.763 0,0" />
      <path
         id="path1772"
         transform="translate(192.252,2925.77)"
         fill="#ffffff"
         d="m 0,0 c 0.782,0.215 1.406,0.48 1.406,0.48 0,0 -0.975,2.816 -1.141,3.148 C 0.098,3.957 0.96,0.597 0,0" />
      <path
         id="path1774"
         transform="translate(191.615,2927.67)"
         fill="#ffffff"
         d="M 0,0 C 0.355,0.355 0.631,1.126 0.631,1.259 0.631,1.391 1.07,-1.115 0.548,-1.523 0.548,-1.338 0.465,-0.166 0,0" />
      <path
         id="path1776"
         transform="translate(191.648,2928.22)"
         fill="#ffffff"
         d="m 0,0 c 0.639,0.59 0.227,2.132 0.227,2.132 l -1.845,1.844 c 0,0 0.715,-2.619 1.047,-2.948 C -0.242,0.695 0,0.234 0,0" />
      <path
         id="path1778"
         transform="translate(189.757,2932.12)"
         fill="#ffffff"
         d="m 0,0 c 0.019,0.125 -1.191,-0.574 -1.191,-1.259 0,-0.684 0.212,-2.086 0.28,-2.313 0.068,-0.226 1.935,0.575 1.935,0.575 0,0 -1.198,1.931 -1.024,2.997" />
      <path
         id="path1780"
         transform="translate(202.694,2911.51)"
         fill="#1d1d1b"
         d="M 0,0 C 0.023,-4.656 3.137,-5.541 3.334,-8.258 1.459,-4.637 -0.794,-4.592 0,0" />
      <path
         id="path1782"
         transform="translate(208.127,2900.51)"
         fill="#1d1d1b"
         d="M 0,0 C 0.484,-1.191 0.839,-1.856 1.633,-2.691 2.43,-3.534 3.534,-4.501 3.662,-5.208 3.798,-5.915 3.878,-4.063 2.472,-2.782 0,-0.529 0,0 0,0" />
      <path
         id="path1784"
         transform="translate(204.92,2918.73)"
         fill="#1d1d1b"
         d="M 0,0 C 0.737,-0.386 0.416,-3.303 -0.325,-3.557 0.382,-1.493 -0.862,0.446 0,0" />
      <path
         id="path1786"
         transform="translate(207.376,2912.08)"
         fill="#1d1d1b"
         d="M 0,0 C 0.31,-2.12 2.139,-2.34 3.224,-4.501 2.691,-1.984 0.597,-1.833 0,0" />
      <path
         id="path1788"
         transform="translate(212.751,2904.22)"
         fill="#1d1d1b"
         d="M 0,0 C 1.27,-2.559 1.489,-4.127 1.357,-7.155 1.822,-5.851 1.844,-1.523 0,0" />
      <path
         id="path1790"
         transform="translate(212.619,2896.44)"
         fill="#1d1d1b"
         d="M 0,0 C 0.586,-1.005 0.763,-1.973 1.357,-3.046 0.661,-2.381 -0.163,-1.357 0,0" />
      <path
         id="path1792"
         transform="translate(198.543,2906.97)"
         fill="#1d1d1b"
         d="m 0,0 c 0,0 0.93,-1.455 1.425,-3.111 0.495,-1.659 0.329,-4.24 0.329,-4.24 0,0 0.631,2.683 0.136,4.274 C 1.391,-1.489 0,0 0,0" />
      <path
         id="path1794"
         transform="translate(191.556,2909.82)"
         fill="#1d1d1b"
         d="m 0,0 c 0,0 1.085,-1.425 1.293,-2.253 0.049,-0.2 -0.333,-1.126 -0.034,-3.31 0.298,-2.189 2.815,-4.638 3.148,-4.937 0.329,-0.294 -2.718,3.78 -2.718,5.832 0,2.979 0.779,2.963 1.293,3.341 C 2.101,-1.837 1.894,-1.901 1.655,-1.954 1.191,-1.682 0,0 0,0" />
      <path
         id="path1796"
         transform="translate(196.688,2892.47)"
         fill="#1d1d1b"
         d="m 0,0 c 0,0 1.493,-1.225 2.287,-1.225 0.793,0 1.723,0.594 1.723,1.72 0,1.126 -0.631,0.93 -0.631,2.619 0,1.69 0.597,1.656 0.794,1.784 0.2,0.136 -1.191,-0.329 -1.191,-2.018 0,-1.689 0.563,-1.157 0.563,-2.283 0,-1.126 -0.763,-1.292 -1.16,-1.292 C 1.096,-0.695 0,0 0,0" />
      <path
         id="path1798"
         transform="translate(193.378,2893.98)"
         fill="#1d1d1b"
         d="m 0,0 c 0,0 -0.752,0.355 -1.368,0.355 -0.62,0 -0.355,-0.706 -0.62,-0.533 -0.265,0.178 -1.236,1.327 -1.236,1.327 0,0 0.397,-1.546 0.62,-1.633 0.219,-0.09 0.616,0.133 0.616,0.133 0,0 0.178,-0.269 0.488,-0.223 0.309,0.045 0.442,0.487 0.706,0.487 C -0.529,-0.087 0,0 0,0" />
      <path
         id="path1800"
         transform="translate(187.417,2894.73)"
         fill="#1d1d1b"
         d="M 0,0 C 0.574,0.488 1.455,0.707 1.455,-0.045 1.455,-0.794 0.881,-0.045 0,0" />
      <path
         id="path1802"
         transform="translate(188.299,2891.64)"
         fill="#1d1d1b"
         d="M 0,0 C -0.045,0.397 -0.884,1.425 -1.191,0.839 -1.633,0 -0.839,0.529 0,0" />
      <path
         id="path1804"
         transform="translate(183.244,2896.92)"
         fill="#1d1d1b"
         d="M 0,0 C 0.616,0.11 1.017,0.064 1.674,-0.333 1.569,0.442 0.484,0.862 0,0" />
      <path
         id="path1806"
         transform="translate(213.898,2880.19)"
         fill="#1d1d1b"
         d="M 0,0 C -0.348,-0.026 -0.552,-1.296 0.136,-1.206 0.548,-1.153 0.03,-0.457 0,0" />
    </g>
    <path
       id="path1810"
       transform="translate(209.142,2937.34)"
       stroke-width="0.79"
       stroke-linecap="round"
       stroke="#1d1d1b"
       fill="none"
       d="m 0,0 c 0.729,-0.064 1.327,0.068 1.723,0.661 0.397,0.598 1.52,0.269 1.788,0.93 0.265,0.662 1.788,0.662 1.92,1.323 0.132,0.665 1.656,0.665 1.724,1.194 0.064,0.529 1.655,0.662 1.719,1.391 0.068,0.726 1.592,0.862 1.523,1.455 -0.064,0.597 1.063,1.127 1.127,1.724 0.064,0.597 1.326,0.862 1.258,1.655 -0.064,0.794 1.127,0.862 0.926,1.724 -0.196,0.858 0.666,1.19 0.397,1.852 -0.261,0.665 1.13,1.258 0.665,1.92 -0.464,0.665 0.333,0.865 0,1.791 -0.332,0.926 0.93,2.23 1.127,2.733 0.283,0.722 0.283,1.496 0.283,2.105 0,0.605 0.775,2.381 0.877,2.714" />
    <path
       id="path1812"
       transform="translate(202.29,2971.91)"
       fill-rule="nonzero"
       fill="#1d1d1b"
       d="M 0,0 C -0.268,-0.412 -0.238,-0.038 -0.559,0.2 -0.873,0.442 -1.217,0.404 -0.952,0.669 -0.76,0.862 -0.593,1.07 -0.276,0.828 0.042,0.59 0.151,0.231 0,0" />
    <path
       id="path1814"
       transform="translate(209.009,2963.57)"
       fill-rule="nonzero"
       fill="#1d1d1b"
       d="M 0,0 C 0.779,0.223 1.606,-0.786 1.368,-1.723 1.134,-0.718 0.59,-0.325 0,0" />
    <path
       id="path1816"
       transform="translate(214.505,2962.31)"
       fill-rule="nonzero"
       fill="#1d1d1b"
       d="m 0,0 c -0.529,0.2 -0.828,-0.495 -0.197,-1.123 0.628,-0.631 0.794,-2.022 0.794,-2.256 0,-0.23 0,-0.858 -0.431,-0.858 -0.431,0 -1.058,1.459 -1.391,1.792 -0.328,0.325 -1.024,1.387 -1.621,1.984 -0.597,0.597 -0.344,-0.771 0.166,-1.69 0.567,-1.028 1.852,-2.581 2.121,-2.849 0.26,-0.265 0.858,-0.96 0.26,-1.554 -0.593,-0.597 0,-0.332 0.567,0.231 0.564,0.563 0.246,0.911 0.794,1.455 0.544,0.548 0.794,1.667 0.299,2.653 -0.495,0.983 -0.7,1.554 -1.198,2.049 z" />
    <path
       id="path1818"
       transform="translate(246.717,2978.88)"
       fill-rule="nonzero"
       fill="#1d1d1b"
       d="m 0,0 c -1.795,-2.899 -7.344,-8.273 -11.543,-10.598 -0.064,-0.034 -0.09,-0.117 -0.053,-0.181 0.034,-0.064 -0.43,-0.635 -0.366,-0.597 4.233,2.343 10.378,8.311 12.189,11.236 C 0.261,-0.079 0.242,0.004 0.181,0.042 0.121,0.079 0.038,0.06 0,0" />
    <path
       id="path1820"
       transform="translate(246.666,2973.4)"
       fill-rule="nonzero"
       fill="#1d1d1b"
       d="m 0,0 c -3.73,-4.161 -9.128,-7.805 -17.193,-12.692 -0.061,-0.037 -0.083,-0.121 -0.045,-0.185 0.041,-0.06 0.121,-0.28 0.181,-0.246 8.088,4.903 13.504,8.761 17.254,12.945 0.045,0.053 0.041,0.14 -0.012,0.189 C 0.132,0.06 0.045,0.053 0,0" />
    <path
       id="path1822"
       transform="translate(243.423,2966.45)"
       fill-rule="nonzero"
       fill="#1d1d1b"
       d="m 0,0 c -2.952,-2.952 -9.116,-6.376 -13.591,-8.307 -0.068,-0.031 -0.098,-0.106 -0.072,-0.174 0.03,-0.065 0.11,-0.148 0.178,-0.117 4.497,1.938 10.696,5.435 13.674,8.413 0.049,0.049 0.049,0.132 0,0.185 C 0.136,0.053 0.053,0.053 0,0" />
    <path
       id="path1824"
       transform="translate(242.399,2962.04)"
       fill-rule="nonzero"
       fill="#1d1d1b"
       d="m 0,0 c -1.757,-1.311 -9.271,-5.541 -13.897,-6.399 -0.072,-0.015 -0.117,-0.083 -0.106,-0.155 0.015,-0.072 0.079,-0.121 0.155,-0.106 4.664,0.866 12.234,5.129 14.007,6.445 0.06,0.045 0.072,0.128 0.026,0.185 C 0.144,0.03 0.06,0.042 0,0" />
    <path
       id="path1826"
       transform="translate(240.434,2957.02)"
       fill-rule="nonzero"
       fill="#1d1d1b"
       d="m 0,0 c -3.598,-1.754 -9.608,-3.417 -12.552,-4.052 -0.072,-0.015 -0.121,-0.087 -0.102,-0.158 0.015,-0.072 0.083,-0.118 0.155,-0.102 2.959,0.638 8.999,2.381 12.616,4.142 0.064,0.03 0.095,0.041 0.061,0.11 C 0.147,0.004 0.068,0.03 0,0" />
    <path
       id="path1828"
       transform="translate(238.313,2953.08)"
       fill-rule="nonzero"
       fill="#1d1d1b"
       d="m 0,0 c -3.008,-1.912 -6.433,-2.442 -12.091,-2.793 -0.075,-0.004 -0.128,-0.068 -0.124,-0.14 0.007,-0.076 0.177,-0.242 0.253,-0.238 5.703,0.355 9.048,1.005 12.106,2.948 0.06,0.038 0.079,0.121 0.037,0.181 C 0.144,0.019 0.064,0.038 0,0" />
    <path
       id="path1830"
       transform="translate(235.418,2947.28)"
       fill-rule="nonzero"
       fill="#1d1d1b"
       d="m 0,0 c -4.048,-0.835 -8.561,-0.926 -10.314,-0.926 -0.053,0 -0.099,-0.042 -0.099,-0.098 0,-0.057 0.046,-0.099 0.099,-0.099 1.757,0 6.289,0.091 10.352,0.93 0.053,0.012 0.091,0.061 0.079,0.114 C 0.106,-0.023 0.053,0.011 0,0" />
    <path
       id="path1832"
       transform="translate(222.953,2943.52)"
       fill-rule="nonzero"
       fill="#1d1d1b"
       d="m 0,0 c -0.008,-0.053 -0.125,-0.106 -0.072,-0.117 3.111,-0.578 8.066,-0.953 9.6,-0.56 0.053,0.012 0.083,0.068 0.072,0.121 C 9.585,-0.503 9.532,-0.472 9.475,-0.484 7.971,-0.869 3.205,-0.499 0.117,0.079 0.064,0.087 0.008,0.053 0,0" />
    <path
       id="path1834"
       transform="translate(220.969,2941.35)"
       fill-rule="nonzero"
       fill="#1d1d1b"
       d="M 0,0 C -0.015,-0.053 -0.189,-0.11 -0.136,-0.125 2.283,-0.922 5.291,-1.75 7.982,-1.519 8.039,-1.516 8.081,-1.47 8.077,-1.417 8.069,-1.361 8.024,-1.319 7.967,-1.323 5.314,-1.55 2.529,-0.726 0.125,0.064 0.076,0.079 0.015,0.053 0,0" />
    <path
       id="path1836"
       transform="translate(217.96,2938.6)"
       fill-rule="nonzero"
       fill="#1d1d1b"
       d="m 0,0 c -0.015,-0.034 -0.14,-0.076 -0.11,-0.091 1.369,-0.691 5.243,-1.799 6.195,-1.799 0.038,0 0.064,0.03 0.064,0.068 0,0.034 -0.026,0.065 -0.064,0.065 -0.941,0 -4.641,1.103 -5.998,1.787 C 0.057,0.045 0.015,0.03 0,0" />
    <path
       id="path1838"
       transform="translate(214.811,2936.31)"
       fill-rule="nonzero"
       fill="#1d1d1b"
       d="m 0,0 c -0.015,-0.034 0,-0.072 0.03,-0.087 1.814,-0.892 5.344,-1.799 6.289,-1.799 0.038,0 0.065,0.03 0.065,0.068 0,0.038 -0.027,0.068 -0.065,0.068 -0.91,0 -4.395,0.987 -6.16,1.852 C 0.129,0.117 0.015,0.034 0,0" />
    <path
       id="path1840"
       transform="translate(213.027,2935.29)"
       fill-rule="nonzero"
       fill="#1d1d1b"
       d="m 0,0 c -0.019,-0.03 -0.098,-0.159 -0.068,-0.178 l 0.99,-0.585 c 1.365,-0.938 2.653,-1.758 4.959,-1.92 0.034,-0.004 0.068,0.022 0.068,0.06 0.004,0.038 -0.023,0.068 -0.06,0.072 -2.268,0.162 -3.542,1.035 -4.891,1.965 L 0.091,0.019 C 0.06,0.042 0.019,0.03 0,0" />
    <path
       id="path1842"
       transform="translate(210.812,2933.94)"
       fill-rule="nonzero"
       fill="#1d1d1b"
       d="M 0,0 C -0.023,-0.026 -0.174,-0.045 -0.147,-0.072 0,-0.193 3.689,-3.126 5.378,-3.292 5.416,-3.296 5.446,-3.269 5.45,-3.231 5.454,-3.194 5.427,-3.163 5.39,-3.16 3.738,-2.997 0.132,-0.019 0.094,0.008 0.064,0.03 0.023,0.03 0,0" />
    <path
       id="path1844"
       transform="translate(209.264,2932.46)"
       fill-rule="nonzero"
       fill="#1d1d1b"
       d="M 0,0 C -0.026,-0.023 -0.079,-0.068 -0.06,-0.091 0.023,-0.189 1.996,-2.46 2.57,-2.695 2.6,-2.71 2.642,-2.691 2.657,-2.661 2.668,-2.627 2.653,-2.585 2.619,-2.574 2.075,-2.351 0.113,-0.03 0.094,-0.008 0.072,0.019 0.03,0.023 0,0" />
    <path
       id="path1846"
       transform="translate(184.281,2961.41)"
       fill-rule="nonzero"
       fill="#1d1d1b"
       d="m 0,0 c 0,0 -1.058,0.31 -1.058,1.058 0,0.752 0.771,0.442 0.771,-0.022 C -0.287,0.574 0,0 0,0" />
    <path
       id="path1848"
       transform="translate(181.423,2966.58)"
       fill-rule="nonzero"
       fill="#1d1d1b"
       d="m 0,0 c 0.881,-0.881 1.312,-1.599 1.312,-2.132 0,-0.529 0.287,1.259 -0.174,1.724 C 0.673,0.057 0.472,0.431 0.472,0.431 L 0.212,0.166 Z" />
    <path
       id="path1850"
       transform="translate(185.075,2966.39)"
       fill-rule="nonzero"
       fill="#1d1d1b"
       d="m 0,0 c -0.31,-1.183 -0.771,-2.09 -0.31,-2.551 0.465,1.013 0.665,1.765 0.665,2.294 C 0.355,0.272 0,0 0,0" />
    <path
       id="path1852"
       transform="translate(203.622,2946.22)"
       fill-rule="nonzero"
       fill="#1d1d1b"
       d="m 0,0 c 0,0.839 0.752,-2.695 0.752,-3.137 0,-0.438 -0.068,-2.536 -1.326,-3.795 -1.259,-1.258 -4.196,-3.004 -4.547,-3.356 -0.356,-0.355 0.174,-1.194 0.174,-1.459 0,-0.264 -0.22,-1.432 -1.168,-1.432 -0.949,0 -0.529,0.88 -1.259,1.61 -0.729,0.729 -0.884,1.633 -1.281,2.562 -0.397,0.926 0.355,1.678 0.355,1.678 0,0 0.265,-1.016 0.73,-1.878 0.461,-0.862 1.073,-1.803 1.409,-1.803 0.333,0 0.73,0.722 0.73,1.206 0,0.487 2.846,3.027 3.398,3.579 0.551,0.552 1.901,1.674 1.901,2.956 0,1.281 -0.643,1.349 -1.104,1.81 -0.465,0.465 0.926,0.268 1.013,-0.128 C -0.132,-1.988 0,-0.442 0,0" />
    <path
       id="path1854"
       transform="translate(197.176,2944.85)"
       fill-rule="nonzero"
       fill="#1d1d1b"
       d="m 0,0 c 0.242,-1.225 0.903,-0.62 0.903,-1.614 0,-0.99 -0.771,-1.655 -0.99,-2.358 -0.223,-0.707 -0.091,-1.372 0.571,-0.707 0.661,0.661 1.372,1.455 1.372,0.438 0,-1.013 0.937,-1.262 0.793,0.178 C 2.502,-2.623 1.5,-2.033 1.5,-1.058 1.5,-0.087 1.346,0.729 0.839,1.236 0.329,1.742 -0.045,1.765 -0.333,1.085 -0.62,0.397 -0.087,0.442 0,0" />
    <path
       id="path1856"
       transform="translate(192.494,2945.51)"
       fill-rule="nonzero"
       fill="#1d1d1b"
       d="m 0,0 c 0.476,-0.692 0.42,-1.172 0.132,-1.455 -0.287,-0.287 -1.058,-0.798 -1.455,-2.253 -0.397,-1.459 0.442,-1.901 0.662,-1.239 0.219,0.665 1.19,2.12 1.19,2.12 0,0 0.752,-0.087 0.268,-1.191 C 0.31,-5.121 0.707,-5.477 1.172,-4.26 1.637,-3.046 1.5,-1.236 1.5,-0.574 1.5,0.087 -0.393,1.002 -0.624,0.771 -0.85,0.544 -2.43,0.132 -1.5,0.132 -0.571,0.132 0,0 0,0" />
    <path
       id="path1858"
       transform="translate(194.747,2943.3)"
       fill-rule="nonzero"
       fill="#1d1d1b"
       d="m 0,0 c -0.038,-0.794 -0.223,-1.723 -0.223,-2.075 0,-0.351 -1.058,-1.104 -0.351,-1.104 h 1.413 c 0,0 0.333,-0.684 0.507,-0.506 0.177,0.174 -0.772,1.345 -0.991,1.345 -0.223,0 -0.026,1.172 0.393,1.592 C 1.172,-0.329 0.971,0 0.484,0.488 0,0.971 0.019,0.446 0,0" />
    <path
       id="path1860"
       transform="translate(205.123,2941.8)"
       fill-rule="nonzero"
       fill="#1d1d1b"
       d="m 0,0 c 0,-1.017 -0.155,-2.317 -0.616,-2.782 -0.465,-0.465 -1.637,-1.368 -1.637,-2.472 0,-1.107 0.469,-1.436 -0.574,-0.929 -1.039,0.51 -0.794,-0.526 0.132,-1.059 0.93,-0.532 1.418,0.046 1.418,1.104 0,1.058 1.576,1.844 1.851,2.12 0.276,0.272 -0.268,1.542 0.242,1.542 0.511,0 1.527,-0.087 1.13,-1.277 -0.4,-1.194 1.1,-1.856 1.1,-0.045 0,1.81 -0.725,2.033 -0.725,2.539 0,0.507 0.041,0.133 -0.564,-0.056 C 1.149,-1.5 1.572,-0.835 1.149,0.045 0.726,0.926 0.015,0.892 0,0.178 Z" />
    <path
       id="path1862"
       transform="translate(201.149,2943.52)"
       fill-rule="nonzero"
       fill="#1d1d1b"
       d="m 0,0 c 0,-0.881 0.465,-1.833 0.752,-2.12 0.284,-0.288 -1.149,0.62 -1.149,0.884 0,0.265 -0.574,-0.442 -0.574,-0.797 0,-0.352 -0.575,1.814 0,3.492 0.574,1.678 1.413,3.224 2.604,3.224 1.194,0 2.649,-0.31 1.368,-0.885 C 1.723,3.224 1.346,2.846 0.639,2.143 -0.068,1.436 0,0 0,0" />
    <path
       id="path1864"
       transform="translate(197.75,2948.7)"
       fill-rule="nonzero"
       fill="#1d1d1b"
       d="M 0,0 C 0.314,-0.314 0.397,-1.16 0.96,-0.96 1.523,-0.763 0,0 0,0" />
    <path
       id="path1866"
       transform="translate(199.339,2947.1)"
       fill-rule="nonzero"
       fill="#1d1d1b"
       d="M 0,0 C 0.465,0.465 1.236,1.281 2.075,1.637 2.914,1.988 3.621,2.075 2.914,1.678 2.207,1.281 0.62,0.087 0.132,-0.132 -0.351,-0.351 0,0 0,0" />
    <path
       id="path1868"
       transform="translate(193.553,2938.18)"
       fill-rule="nonzero"
       fill="#1d1d1b"
       d="m 0,0 c -0.669,-1.232 -1.81,-3.224 -1.81,-3.708 0,-0.487 1.568,-1.304 2.517,-2.252 0.948,-0.953 2.252,-2.075 2.252,-1.369 0,0.707 -1.591,1.985 -2.162,2.208 -0.574,0.219 -1.988,1.016 -1.988,1.632 0,0.62 1.501,2.518 1.501,2.96 C 0.31,-0.087 0.476,0.873 0,0" />
    <path
       id="path1870"
       transform="translate(193.841,2924.29)"
       fill-rule="nonzero"
       fill="#ffffff"
       d="m 0,0 c 0.488,0.416 1.663,2.328 1.663,2.721 0,0.393 -2.347,3.039 -2.347,3.039 0,0 -1.077,1.005 -0.673,0.042 C -0.949,4.834 0.552,1.878 0,0" />
    <path
       id="path1872"
       transform="translate(188.654,2935.97)"
       fill-rule="nonzero"
       fill="#1d1d1b"
       d="M 0,0 C -0.631,1.444 0.132,2.472 0.661,3.443 1.191,4.414 2.294,5.605 2.804,6.115 3.311,6.622 3.708,6.051 2.827,5.167 1.943,4.282 0.574,2.827 0.574,1.678 0.574,0.529 0.752,-0.797 0.752,-1.614 0.752,-2.43 0.31,-0.707 0,0" />
    <path
       id="path1874"
       transform="translate(191.082,2938.36)"
       fill-rule="nonzero"
       fill="#1d1d1b"
       d="m 0,0 c -0.741,0.741 0.219,-1.327 -0.31,-2.782 -0.529,-1.455 0.178,-2.162 0.575,-2.562 0.396,-0.397 0,1.723 0,2.517 0,0.794 0.132,2.43 -0.265,2.827" />
    <path
       id="path1876"
       transform="translate(198.781,2928.55)"
       fill-rule="nonzero"
       fill="#1d1d1b"
       d="M 0,0 C 0.809,-0.809 -0.707,1.988 -0.306,2.759 0.098,3.534 0.238,4.271 -0.461,3.575 -1.153,2.88 -0.272,2.328 -1.364,1.236 -2.457,0.144 -2.929,0.442 -2.079,0.144 -1.232,-0.155 -0.843,0.015 -0.843,-0.93 v 1.856 c 0,0 0.465,-0.544 0.843,-0.926" />
    <path
       id="path1878"
       transform="translate(192.682,2931.65)"
       fill-rule="nonzero"
       fill="#1d1d1b"
       d="m 0,0 c -1.243,-1.243 -0.151,-2.094 -0.151,-3.001 0,-0.907 1.013,-0.843 1.376,-1.206 0.362,-0.362 1.058,-0.464 0.362,1.093 -0.691,1.557 -1.621,1.425 -1.621,1.425 0,0 0.729,0.827 0.729,1.322 C 0.695,0.132 0.866,0.866 0,0" />
    <path
       id="path1880"
       transform="translate(196.105,2848.21)"
       fill-rule="nonzero"
       fill="#1d1d1b"
       d="m 0,0 3.103,0.34 c 0.076,-0.627 0.272,-1.096 0.59,-1.398 0.321,-0.299 0.737,-0.45 1.262,-0.45 0.658,0 1.221,0.306 1.682,0.915 0.461,0.616 0.76,1.886 0.888,3.817 C 6.716,2.279 5.703,1.81 4.49,1.81 3.171,1.81 2.033,2.324 1.077,3.352 0.121,4.38 -0.359,5.718 -0.359,7.366 c 0,1.716 0.506,3.103 1.516,4.154 1.009,1.051 2.297,1.576 3.858,1.576 1.701,0 3.096,-0.661 4.184,-1.988 1.089,-1.327 1.637,-3.504 1.637,-6.539 0,-3.087 -0.567,-5.317 -1.701,-6.686 -1.13,-1.364 -2.6,-2.048 -4.418,-2.048 -1.308,0 -2.362,0.348 -3.167,1.043 C 0.745,-2.426 0.231,-1.387 0,0 M 7.238,7.113 C 7.238,8.168 7,8.984 6.52,9.566 6.043,10.148 5.492,10.439 4.864,10.439 4.267,10.439 3.772,10.201 3.379,9.725 2.986,9.249 2.789,8.466 2.789,7.381 2.789,6.278 3.001,5.469 3.428,4.955 3.859,4.437 4.392,4.18 5.038,4.18 c 0.62,0 1.138,0.25 1.565,0.745 0.423,0.495 0.635,1.224 0.635,2.188" />
    <path
       id="path1882"
       transform="translate(196.105,2848.21)"
       stroke-width="1.03"
       stroke="#1d1d1b"
       fill="none"
       d="m 0,0 3.103,0.34 c 0.076,-0.627 0.272,-1.096 0.59,-1.398 0.321,-0.299 0.737,-0.45 1.262,-0.45 0.658,0 1.221,0.306 1.682,0.915 0.461,0.616 0.76,1.886 0.888,3.817 C 6.716,2.279 5.703,1.81 4.49,1.81 3.171,1.81 2.033,2.324 1.077,3.352 0.121,4.38 -0.359,5.718 -0.359,7.366 c 0,1.716 0.506,3.103 1.516,4.154 1.009,1.051 2.297,1.576 3.858,1.576 1.701,0 3.096,-0.661 4.184,-1.988 1.089,-1.327 1.637,-3.504 1.637,-6.539 0,-3.087 -0.567,-5.317 -1.701,-6.686 -1.13,-1.364 -2.6,-2.048 -4.418,-2.048 -1.308,0 -2.362,0.348 -3.167,1.043 C 0.745,-2.426 0.231,-1.387 0,0 Z M 7.238,7.113 C 7.238,8.168 7,8.984 6.52,9.566 6.043,10.148 5.492,10.439 4.864,10.439 4.267,10.439 3.772,10.201 3.379,9.725 2.986,9.249 2.789,8.466 2.789,7.381 2.789,6.278 3.001,5.469 3.428,4.955 3.859,4.437 4.392,4.18 5.038,4.18 c 0.62,0 1.138,0.25 1.565,0.745 0.423,0.495 0.635,1.224 0.635,2.188 z" />
    <path
       id="path1884"
       transform="translate(196.105,2848.21)"
       fill-rule="nonzero"
       fill="#ffffff"
       d="m 0,0 3.103,0.34 c 0.076,-0.627 0.272,-1.096 0.59,-1.398 0.321,-0.299 0.737,-0.45 1.262,-0.45 0.658,0 1.221,0.306 1.682,0.915 0.461,0.616 0.76,1.886 0.888,3.817 C 6.716,2.279 5.703,1.81 4.49,1.81 3.171,1.81 2.033,2.324 1.077,3.352 0.121,4.38 -0.359,5.718 -0.359,7.366 c 0,1.716 0.506,3.103 1.516,4.154 1.009,1.051 2.297,1.576 3.858,1.576 1.701,0 3.096,-0.661 4.184,-1.988 1.089,-1.327 1.637,-3.504 1.637,-6.539 0,-3.087 -0.567,-5.317 -1.701,-6.686 -1.13,-1.364 -2.6,-2.048 -4.418,-2.048 -1.308,0 -2.362,0.348 -3.167,1.043 C 0.745,-2.426 0.231,-1.387 0,0 M 7.238,7.113 C 7.238,8.168 7,8.984 6.52,9.566 6.043,10.148 5.492,10.439 4.864,10.439 4.267,10.439 3.772,10.201 3.379,9.725 2.986,9.249 2.789,8.466 2.789,7.381 2.789,6.278 3.001,5.469 3.428,4.955 3.859,4.437 4.392,4.18 5.038,4.18 c 0.62,0 1.138,0.25 1.565,0.745 0.423,0.495 0.635,1.224 0.635,2.188" />
  </g>
</svg>
